<svg width="524" height="253" viewBox="0 0 524 253" fill="none" xmlns="http://www.w3.org/2000/svg">
<g filter="url(#filter0_d)">
<path d="M109.017 219H105.017V223H109.017V219ZM109.017 167.736H113.017V163.736H109.017V167.736ZM34.4251 167.736H30.4251V171.736H34.4251V167.736ZM34.4251 34.968V30.968H30.4251V34.968H34.4251ZM94.3291 34.968H98.3291V30.968H94.3291V34.968ZM94.3291 121.656H90.3291V125.656H94.3291V121.656ZM109.017 121.656V125.656H113.017V121.656H109.017ZM109.017 34.968V30.968H105.017V34.968H109.017ZM168.921 34.968H172.921V30.968H168.921V34.968ZM168.921 121.656H164.921V125.656H168.921V121.656ZM184.185 121.656H188.185V117.656H184.185V121.656ZM184.185 167.736V171.736H188.185V167.736H184.185ZM168.921 167.736V163.736H164.921V167.736H168.921ZM168.921 219V223H172.921V219H168.921ZM113.017 219V167.736H105.017V219H113.017ZM109.017 163.736H34.4251V171.736H109.017V163.736ZM38.4251 167.736V34.968H30.4251V167.736H38.4251ZM34.4251 38.968H94.3291V30.968H34.4251V38.968ZM90.3291 34.968V121.656H98.3291V34.968H90.3291ZM94.3291 125.656H109.017V117.656H94.3291V125.656ZM113.017 121.656V34.968H105.017V121.656H113.017ZM109.017 38.968H168.921V30.968H109.017V38.968ZM164.921 34.968V121.656H172.921V34.968H164.921ZM168.921 125.656H184.185V117.656H168.921V125.656ZM180.185 121.656V167.736H188.185V121.656H180.185ZM184.185 163.736H168.921V171.736H184.185V163.736ZM164.921 167.736V219H172.921V167.736H164.921ZM168.921 215H109.017V223H168.921V215ZM271.395 81.624C271.395 80.8154 271.19 79.4743 270.079 78.3636C268.968 77.2528 267.627 77.048 266.819 77.048V85.048C266.394 85.048 265.341 84.9391 264.422 84.0204C263.503 83.1017 263.395 82.0486 263.395 81.624H271.395ZM266.819 77.048H253.283V85.048H266.819V77.048ZM253.283 77.048C252.474 77.048 251.133 77.2528 250.022 78.3636C248.911 79.4743 248.707 80.8154 248.707 81.624H256.707C256.707 82.0486 256.598 83.1017 255.679 84.0204C254.76 84.9391 253.707 85.048 253.283 85.048V77.048ZM248.707 81.624V172.632H256.707V81.624H248.707ZM248.707 172.632C248.707 173.441 248.911 174.782 250.022 175.892C251.133 177.003 252.474 177.208 253.283 177.208V169.208C253.707 169.208 254.76 169.317 255.679 170.236C256.598 171.154 256.707 172.207 256.707 172.632H248.707ZM253.283 177.208H266.819V169.208H253.283V177.208ZM266.819 177.208C267.627 177.208 268.968 177.003 270.079 175.892C271.19 174.782 271.395 173.441 271.395 172.632H263.395C263.395 172.207 263.503 171.154 264.422 170.236C265.341 169.317 266.394 169.208 266.819 169.208V177.208ZM271.395 172.632V81.624H263.395V172.632H271.395ZM222.755 215C213.163 215 206.702 213.159 202.71 210.127C198.926 207.253 196.803 202.875 196.803 196.248H188.803C188.803 204.789 191.671 211.787 197.871 216.497C203.864 221.049 212.378 223 222.755 223V215ZM196.803 196.248V58.296H188.803V196.248H196.803ZM196.803 58.296C196.803 51.4406 198.952 46.9124 202.748 43.9558C206.735 40.8511 213.18 38.968 222.755 38.968V30.968C212.362 30.968 203.831 32.9728 197.833 37.6442C191.645 42.4636 188.803 49.5994 188.803 58.296H196.803ZM222.755 38.968H297.347V30.968H222.755V38.968ZM297.347 38.968C306.922 38.968 313.367 40.8511 317.353 43.9558C321.149 46.9124 323.299 51.4406 323.299 58.296H331.299C331.299 49.5994 328.456 42.4636 322.268 37.6442C316.271 32.9728 307.74 30.968 297.347 30.968V38.968ZM323.299 58.296V196.248H331.299V58.296H323.299ZM323.299 196.248C323.299 202.875 321.175 207.253 317.391 210.127C313.4 213.159 306.938 215 297.347 215V223C307.723 223 316.238 221.049 322.23 216.497C328.43 211.787 331.299 204.789 331.299 196.248H323.299ZM297.347 215H222.755V223H297.347V215ZM414.173 219H410.173V223H414.173V219ZM414.173 167.736H418.173V163.736H414.173V167.736ZM339.581 167.736H335.581V171.736H339.581V167.736ZM339.581 34.968V30.968H335.581V34.968H339.581ZM399.485 34.968H403.485V30.968H399.485V34.968ZM399.485 121.656H395.485V125.656H399.485V121.656ZM414.173 121.656V125.656H418.173V121.656H414.173ZM414.173 34.968V30.968H410.173V34.968H414.173ZM474.077 34.968H478.077V30.968H474.077V34.968ZM474.077 121.656H470.077V125.656H474.077V121.656ZM489.341 121.656H493.341V117.656H489.341V121.656ZM489.341 167.736V171.736H493.341V167.736H489.341ZM474.077 167.736V163.736H470.077V167.736H474.077ZM474.077 219V223H478.077V219H474.077ZM418.173 219V167.736H410.173V219H418.173ZM414.173 163.736H339.581V171.736H414.173V163.736ZM343.581 167.736V34.968H335.581V167.736H343.581ZM339.581 38.968H399.485V30.968H339.581V38.968ZM395.485 34.968V121.656H403.485V34.968H395.485ZM399.485 125.656H414.173V117.656H399.485V125.656ZM418.173 121.656V34.968H410.173V121.656H418.173ZM414.173 38.968H474.077V30.968H414.173V38.968ZM470.077 34.968V121.656H478.077V34.968H470.077ZM474.077 125.656H489.341V117.656H474.077V125.656ZM485.341 121.656V167.736H493.341V121.656H485.341ZM489.341 163.736H474.077V171.736H489.341V163.736ZM470.077 167.736V219H478.077V167.736H470.077ZM474.077 215H414.173V223H474.077V215Z" fill="url(#paint0_linear)"/>
</g>
<defs>
<filter id="filter0_d" x="0.425171" y="0.967987" width="522.916" height="252.032" filterUnits="userSpaceOnUse" color-interpolation-filters="sRGB">
<feFlood flood-opacity="0" result="BackgroundImageFix"/>
<feColorMatrix in="SourceAlpha" type="matrix" values="0 0 0 0 0 0 0 0 0 0 0 0 0 0 0 0 0 0 127 0"/>
<feOffset/>
<feGaussianBlur stdDeviation="15"/>
<feColorMatrix type="matrix" values="0 0 0 0 0.188235 0 0 0 0 0.705882 0 0 0 0 1 0 0 0 1 0"/>
<feBlend mode="normal" in2="BackgroundImageFix" result="effect1_dropShadow"/>
<feBlend mode="normal" in="SourceGraphic" in2="effect1_dropShadow" result="shape"/>
</filter>
<linearGradient id="paint0_linear" x1="912.632" y1="-89.3262" x2="783.195" y2="551.964" gradientUnits="userSpaceOnUse">
<stop stop-color="#37B7FF" stop-opacity="0.198682"/>
<stop offset="0.178734" stop-color="#30B4FF"/>
<stop offset="0.313235" stop-color="#77CEFF"/>
<stop offset="0.520833" stop-color="#51C0FF" stop-opacity="0.941176"/>
<stop offset="1" stop-color="#30B4FF" stop-opacity="0"/>
</linearGradient>
</defs>
</svg>
