<svg width="17" height="16" viewBox="0 0 17 16" fill="none" xmlns="http://www.w3.org/2000/svg">
<path d="M16.5 14.8571V1.14286C16.5 0.514286 16.02 0 15.4333 0H1.56667C0.98 0 0.5 0.514286 0.5 1.14286V14.8571C0.5 15.4857 0.98 16 1.56667 16H15.4333C16.02 16 16.5 15.4857 16.5 14.8571ZM5.83333 9.14286H6.9C7.48667 9.14286 7.96667 9.65714 7.96667 10.2857C7.96667 10.9143 7.48667 11.4286 6.9 11.4286H5.83333V13.1429C5.83333 13.4629 5.59867 13.7143 5.3 13.7143C5.00133 13.7143 4.76667 13.4629 4.76667 13.1429V11.4286H3.7C3.11333 11.4286 2.63333 10.9143 2.63333 10.2857C2.63333 9.65714 3.11333 9.14286 3.7 9.14286H4.76667V2.85714C4.76667 2.53714 5.00133 2.28571 5.3 2.28571C5.59867 2.28571 5.83333 2.53714 5.83333 2.85714V9.14286ZM11.1667 6.85714H10.1C9.51333 6.85714 9.03333 6.34286 9.03333 5.71429C9.03333 5.08571 9.51333 4.57143 10.1 4.57143H11.1667V2.85714C11.1667 2.53714 11.4013 2.28571 11.7 2.28571C11.9987 2.28571 12.2333 2.53714 12.2333 2.85714V4.57143H13.3C13.8867 4.57143 14.3667 5.08571 14.3667 5.71429C14.3667 6.34286 13.8867 6.85714 13.3 6.85714H12.2333V13.1429C12.2333 13.4629 11.9987 13.7143 11.7 13.7143C11.4013 13.7143 11.1667 13.4629 11.1667 13.1429V6.85714Z" fill="white"/>
</svg>
