<svg width="16" height="16" viewBox="0 0 16 16" fill="none" xmlns="http://www.w3.org/2000/svg">
<path d="M4.6665 7.33325H5.99984V8.66659H4.6665V7.33325ZM4.6665 9.99992H5.99984V11.3333H4.6665V9.99992ZM7.33317 7.33325H8.6665V8.66659H7.33317V7.33325ZM7.33317 9.99992H8.6665V11.3333H7.33317V9.99992ZM9.99984 7.33325H11.3332V8.66659H9.99984V7.33325ZM9.99984 9.99992H11.3332V11.3333H9.99984V9.99992Z" fill="#6D829B"/>
<path d="M3.33333 14.6666H12.6667C13.402 14.6666 14 14.0686 14 13.3333V3.99992C14 3.26459 13.402 2.66659 12.6667 2.66659H11.3333V1.33325H10V2.66659H6V1.33325H4.66667V2.66659H3.33333C2.598 2.66659 2 3.26459 2 3.99992V13.3333C2 14.0686 2.598 14.6666 3.33333 14.6666ZM12.6667 5.33325L12.6673 13.3333H3.33333V5.33325H12.6667Z" fill="#6D829B"/>
</svg>
