<svg width="17" height="16" viewBox="0 0 17 16" fill="none" xmlns="http://www.w3.org/2000/svg">
<g clip-path="url(#clip0)">
<path d="M13.473 7.45503C15.3911 7.45503 16.946 6.57169 16.946 5.48203C16.946 4.39238 15.3911 3.50903 13.473 3.50903C11.5549 3.50903 10 4.39238 10 5.48203C10 6.57169 11.5549 7.45503 13.473 7.45503Z" fill="#6D829B"/>
<path fill-rule="evenodd" clip-rule="evenodd" d="M13.525 8.14498C11.041 8.14498 10.052 7.10398 10.052 6.50098V9.08398C10.052 10.174 11.607 11.056 13.525 11.056C15.445 11.056 17 10.174 17 9.08398V6.56298C17 7.16698 16.01 8.14498 13.525 8.14498Z" fill="#6D829B"/>
<path fill-rule="evenodd" clip-rule="evenodd" d="M13.525 11.699C11.303 11.699 10.052 10.698 10.052 10.095V12.654C10.052 13.744 11.607 14.627 13.525 14.627C15.445 14.627 17 13.744 17 12.654V10.064C17 10.667 15.748 11.699 13.525 11.699Z" fill="#6D829B"/>
<path d="M4.937 3.946C7.11135 3.946 8.874 3.06266 8.874 1.973C8.874 0.883342 7.11135 0 4.937 0C2.76266 0 1 0.883342 1 1.973C1 3.06266 2.76266 3.946 4.937 3.946Z" fill="#6D829B"/>
<path fill-rule="evenodd" clip-rule="evenodd" d="M5.062 4.59004C2.247 4.59004 1.125 3.54904 1.125 2.94604V5.52904C1.125 6.61904 2.888 7.50105 5.062 7.50105C7.238 7.50105 9 6.61904 9 5.52904V3.00804C9 3.61204 7.877 4.59004 5.062 4.59004Z" fill="#6D829B"/>
<path fill-rule="evenodd" clip-rule="evenodd" d="M5.062 8.13598C2.543 8.13598 1.125 7.13498 1.125 6.53198V9.09098C1.125 10.181 2.888 11.064 5.062 11.064C7.238 11.064 9 10.181 9 9.09098V6.50098C9 7.10398 7.58 8.13598 5.062 8.13598Z" fill="#6D829B"/>
<path fill-rule="evenodd" clip-rule="evenodd" d="M5.062 11.699C2.543 11.699 1.125 10.698 1.125 10.095V12.654C1.125 13.744 2.888 14.627 5.062 14.627C7.238 14.627 9 13.744 9 12.654V10.064C9 10.667 7.58 11.699 5.062 11.699Z" fill="#6D829B"/>
</g>
<defs>
<clipPath id="clip0">
<rect width="17" height="16" fill="white"/>
</clipPath>
</defs>
</svg>
