<svg width="14" height="16" viewBox="0 0 14 16" fill="none" xmlns="http://www.w3.org/2000/svg">
<path d="M10.75 6H12.25C12.6478 6 13.0294 6.15804 13.3107 6.43934C13.592 6.72064 13.75 7.10218 13.75 7.5V14.25C13.75 14.6478 13.592 15.0294 13.3107 15.3107C13.0294 15.592 12.6478 15.75 12.25 15.75H1.75C1.35218 15.75 0.970644 15.592 0.68934 15.3107C0.408035 15.0294 0.25 14.6478 0.25 14.25V7.5C0.25 7.10218 0.408035 6.72064 0.68934 6.43934C0.970644 6.15804 1.35218 6 1.75 6H3.25V7.5H1.75V14.25H12.25V7.5H10.75V6ZM2.875 4.125L3.9355 5.1855L6.25 2.871V10.5H7.75V2.871L10.0645 5.1855L11.125 4.125L7 0L2.875 4.125Z" fill="#6D829B"/>
</svg>
