<svg width="16" height="14" viewBox="0 0 16 14" fill="none" xmlns="http://www.w3.org/2000/svg">
<path fill-rule="evenodd" clip-rule="evenodd" d="M9.67366 3.74197L13.8889 1.11431H7.72075V6.40253C7.72204 6.40253 7.72333 6.40253 7.72462 6.40253V7.59093C7.72333 7.59093 7.72204 7.59093 7.72075 7.59093V9.00446H9.45012V4.17233C9.45012 3.99294 9.53586 3.82787 9.67366 3.74197ZM6.86287 7.50391V9.49467C6.86287 9.76541 7.05491 9.98489 7.29181 9.98489H9.45012V13.0429C9.45012 13.415 9.79863 13.6514 10.0845 13.4733L15.7764 9.92503C15.9142 9.83913 16 9.67407 16 9.49467V0.633187C16.0007 0.58981 15.9964 0.54601 15.9868 0.502943L15.9841 0.49146C15.9755 0.456695 15.9634 0.422444 15.9476 0.389357C15.94 0.373385 15.9317 0.358091 15.9228 0.343495C15.8878 0.28641 15.8425 0.238221 15.79 0.202496C15.7391 0.168002 15.6824 0.145929 15.6238 0.137572L15.6181 0.136804C15.5996 0.134453 15.581 0.133465 15.5623 0.133882H7.29181C7.05491 0.133882 6.86287 0.353359 6.86287 0.624098V6.28189C6.12118 6.06776 5.5178 5.58589 5.16955 4.97645L4.57535 4.02573C4.33767 3.6692 3.98115 3.43152 3.56521 3.43152C3.47608 3.43152 3.4018 3.44638 3.32753 3.46123C3.25325 3.47609 3.17898 3.49094 3.08985 3.49094L0 4.79819V7.59093H1.1884V5.57065L2.25796 5.15471L0.594201 13.5329H1.84202L2.91159 8.77934L4.15941 9.96774V13.5329H5.34781V9.07644L4.09999 7.88803L4.45651 6.10543C5.055 6.796 5.90319 7.30822 6.86287 7.50391ZM5.64491 1.94602C5.64491 2.59964 5.11013 3.13442 4.45651 3.13442C3.80289 3.13442 3.26811 2.59964 3.26811 1.94602C3.26811 1.2924 3.80289 0.757619 4.45651 0.757619C5.11013 0.757619 5.64491 1.2924 5.64491 1.94602Z" fill="#30B4FF"/>
</svg>
