<svg width="218" height="90" viewBox="0 0 218 90" fill="none" xmlns="http://www.w3.org/2000/svg">
<path d="M0 0H217.161L163.233 89.0566H0V0Z" fill="url(#paint0_linear)"/>
<g clip-path="url(#clip0)">
<path d="M82.9772 61.2271H106.302L104.831 58.0138L112.849 66.0247V31.6024C112.738 29.4623 110.854 27.6438 108.518 27.6438L82.6282 27.6437C80.2939 27.6437 78.3997 29.4654 78.3997 31.6055V57.5803C78.3997 59.8371 80.6478 61.2271 82.9772 61.2271ZM99.8743 36.7285L99.8203 36.7477L99.8399 36.7285H99.8743ZM87.3916 38.7582C90.39 36.6245 93.1692 36.7269 93.1692 36.7269L93.3933 36.9428C89.7242 37.7985 88.0606 39.4011 88.0606 39.4011C88.0606 39.4011 88.5055 39.1884 89.2825 38.8637C94.2243 36.9636 99.6207 37.1011 104.616 39.5067C104.616 39.5067 102.95 38.008 99.5062 37.0484L99.8105 36.7557C100.286 36.7573 102.806 36.8436 105.501 38.7709C105.501 38.7709 108.518 43.8092 108.518 49.999C108.418 49.8806 106.646 52.6636 102.087 52.7596C102.087 52.7596 101.315 51.9055 100.766 51.1602C103.432 50.4116 104.43 48.9146 104.43 48.9146C103.555 49.4536 102.757 49.7735 102.109 50.0933C101.113 50.522 100.115 50.7331 99.1185 50.949C94.4009 51.6976 91.7526 50.4452 89.2498 49.452L88.3943 49.0265C88.3943 49.0265 89.3905 50.5236 91.9505 51.2721C91.2782 52.0223 90.6124 52.8748 90.6124 52.8748C86.0551 52.7692 84.3932 49.9862 84.3932 49.9862C84.3932 43.7868 87.3916 38.7582 87.3916 38.7582Z" fill="white"/>
<path d="M100.169 48.066C101.332 48.066 102.279 47.1064 102.279 45.9228C102.279 44.7472 101.337 43.7875 100.169 43.7875V43.7923C99.0111 43.7923 98.0624 44.7488 98.0591 45.9324C98.0591 47.1064 99.0062 48.066 100.169 48.066Z" fill="white"/>
<path d="M92.615 48.066C93.7781 48.066 94.7252 47.1064 94.7252 45.9228C94.7252 44.7472 93.7846 43.7875 92.6216 43.7875L92.615 43.7923C91.452 43.7923 90.5049 44.7488 90.5049 45.9324C90.5049 47.1064 91.452 48.066 92.615 48.066Z" fill="white"/>
</g>
<defs>
<linearGradient id="paint0_linear" x1="113.24" y1="8.44501" x2="-4.2225" y2="92.8952" gradientUnits="userSpaceOnUse">
<stop stop-color="#9671FF"/>
<stop offset="1" stop-color="#4B24BA"/>
</linearGradient>
<clipPath id="clip0">
<rect width="34.5478" height="38.3864" fill="white" transform="translate(78.3345 27.6388)"/>
</clipPath>
</defs>
</svg>
