<svg width="219" height="89" viewBox="0 0 219 89" fill="none" xmlns="http://www.w3.org/2000/svg">
<path d="M218.5 88.9063H3.05176e-05L26.9187 44.4531L53.8373 7.62939e-06H218.5V88.9063Z" fill="url(#paint0_linear)"/>
<g clip-path="url(#clip0)">
<path fill-rule="evenodd" clip-rule="evenodd" d="M109.232 26.8245C108.127 26.8245 107.232 27.7199 107.232 28.8245V58.5475C107.232 59.6521 108.127 60.5475 109.232 60.5475H138.955C140.059 60.5475 140.955 59.6521 140.955 58.5475V28.8245C140.955 27.7199 140.059 26.8245 138.955 26.8245H109.232ZM132.513 45.4816C133.287 46.2369 134.106 46.9479 134.8 47.7829C135.107 48.1518 135.398 48.5324 135.619 48.9599C135.933 49.5724 135.649 50.2435 135.101 50.2804L131.701 50.279C130.824 50.3511 130.124 49.9972 129.535 49.3968C129.066 48.9188 128.627 48.4071 128.174 47.9128C127.99 47.7093 127.795 47.5189 127.564 47.3671C127.099 47.0662 126.696 47.1575 126.431 47.6413C126.161 48.1341 126.097 48.6812 126.072 49.23C126.035 50.031 125.794 50.2405 124.99 50.279C123.27 50.3587 121.638 50.0974 120.123 49.2315C118.785 48.4676 117.75 47.3875 116.849 46.1663C115.092 43.7854 113.747 41.1715 112.538 38.4824C112.265 37.8764 112.465 37.5516 113.131 37.5399C114.242 37.5179 115.353 37.5206 116.462 37.5384C116.914 37.546 117.213 37.8039 117.386 38.2302C117.986 39.7056 118.721 41.1096 119.642 42.4124C119.889 42.759 120.14 43.1042 120.495 43.3489C120.889 43.6204 121.19 43.5317 121.376 43.0906C121.494 42.8105 121.546 42.5125 121.57 42.213C121.659 41.1877 121.669 40.1614 121.517 39.1392C121.423 38.5002 121.062 38.0871 120.424 37.9663C120.1 37.9043 120.148 37.785 120.305 37.5988C120.579 37.279 120.838 37.0795 121.349 37.0795H125.192C125.798 37.1978 125.934 37.4707 126.016 38.0799L126.019 42.3504C126.012 42.5864 126.138 43.2854 126.561 43.4402C126.9 43.5524 127.126 43.2793 127.329 43.0641C128.25 42.0875 128.906 40.9328 129.493 39.738C129.753 39.2127 129.977 38.667 130.195 38.1209C130.356 37.7169 130.607 37.5179 131.063 37.5251L134.762 37.5296C134.872 37.5296 134.984 37.5296 135.091 37.5473C135.714 37.6549 135.885 37.9234 135.691 38.5325C135.389 39.4868 134.798 40.2835 134.221 41.0815C133.603 41.9357 132.945 42.76 132.331 43.6187C131.771 44.405 131.815 44.8003 132.513 45.4816Z" fill="white"/>
</g>
<defs>
<linearGradient id="paint0_linear" x1="211.219" y1="26.0587" x2="78.6255" y2="88.9063" gradientUnits="userSpaceOnUse">
<stop stop-color="#2E62F7"/>
<stop offset="1" stop-color="#002DAE"/>
</linearGradient>
<clipPath id="clip0">
<rect width="33.7231" height="33.7231" fill="white" transform="translate(107.232 26.8245)"/>
</clipPath>
</defs>
</svg>
