<svg width="16" height="16" viewBox="0 0 16 16" fill="none" xmlns="http://www.w3.org/2000/svg">
<path d="M14.4954 8.21104L8.49536 1.54437C8.2427 1.26304 7.75736 1.26304 7.5047 1.54437L1.5047 8.21104C1.41833 8.30677 1.36165 8.42553 1.34153 8.55288C1.32141 8.68023 1.33872 8.81068 1.39136 8.92837C1.49803 9.16904 1.7367 9.32371 2.00003 9.32371H3.33336V13.9904C3.33336 14.1672 3.4036 14.3368 3.52863 14.4618C3.65365 14.5868 3.82322 14.657 4.00003 14.657H6.00003C6.17684 14.657 6.34641 14.5868 6.47143 14.4618C6.59646 14.3368 6.6667 14.1672 6.6667 13.9904V11.3237H9.33336V13.9904C9.33336 14.1672 9.4036 14.3368 9.52863 14.4618C9.65365 14.5868 9.82322 14.657 10 14.657H12C12.1768 14.657 12.3464 14.5868 12.4714 14.4618C12.5965 14.3368 12.6667 14.1672 12.6667 13.9904V9.32371H14C14.1291 9.32426 14.2556 9.28723 14.3641 9.21714C14.4725 9.14705 14.5582 9.04692 14.6107 8.92897C14.6632 8.81102 14.6803 8.68034 14.6598 8.55286C14.6393 8.42538 14.5822 8.30661 14.4954 8.21104Z" fill="white"/>
</svg>
