<svg width="28" height="28" viewBox="0 0 28 28" fill="none" xmlns="http://www.w3.org/2000/svg">
<g clip-path="url(#clip0)">
<path d="M4.36445 24.1817H21L20.0176 22.1561L22.909 25.4545L25.4545 28L25.7366 2.891C25.6572 1.33 24.3132 0.0035 22.6472 0.0035L4.1824 0.00341797C2.51756 0.00341797 1.16656 1.33225 1.16656 2.89325V21.8399C1.16656 23.4861 2.70312 24.1817 4.36445 24.1817ZM16.4826 6.63008L16.4441 6.64408L16.4581 6.63008H16.4826ZM7.57973 8.11059C9.71823 6.55425 11.7004 6.62892 11.7004 6.62892L11.8602 6.78642C9.2434 7.41058 8.0569 8.57959 8.0569 8.57959C8.0569 8.57959 8.37423 8.42442 8.9284 8.18758C12.4529 6.80159 16.3017 6.90192 19.8647 8.65658C19.8647 8.65658 18.6759 7.56342 16.2201 6.86342L16.4371 6.64992C16.7766 6.65108 18.5732 6.71408 20.4959 8.11992C20.4959 8.11992 22.6472 11.7949 22.6472 16.3099C22.5761 16.2236 21.3126 18.2536 18.0611 18.3236C18.0611 18.3236 17.5104 17.7006 17.1184 17.1569C19.0201 16.6109 19.7317 15.5189 19.7317 15.5189C19.1076 15.9121 18.5382 16.1454 18.0762 16.3787C17.3657 16.6914 16.6541 16.8454 15.9436 17.0029C12.5789 17.5489 10.6901 16.6354 8.90506 15.9109L8.2949 15.6006C8.2949 15.6006 9.0054 16.6926 10.8312 17.2386C10.3517 17.7858 9.8769 18.4076 9.8769 18.4076C6.62656 18.3306 5.44123 16.3006 5.44123 16.3006C5.44123 11.7786 7.57973 8.11059 7.57973 8.11059Z" fill="white" fill-opacity="0.7"/>
<path d="M16.6927 14.8995C17.5222 14.8995 18.1977 14.1995 18.1977 13.3362C18.1977 12.4787 17.5257 11.7787 16.6927 11.7787V11.7822C15.8667 11.7822 15.19 12.4799 15.1877 13.3432C15.1877 14.1995 15.8632 14.8995 16.6927 14.8995Z" fill="white" fill-opacity="0.7"/>
<path d="M11.305 14.8995C12.1345 14.8995 12.81 14.1995 12.81 13.3362C12.81 12.4787 12.1392 11.7787 11.3097 11.7787L11.305 11.7822C10.4755 11.7822 9.80005 12.4799 9.80005 13.3432C9.80005 14.1995 10.4755 14.8995 11.305 14.8995Z" fill="white" fill-opacity="0.7"/>
</g>
<defs>
<clipPath id="clip0">
<rect width="28" height="28" fill="white"/>
</clipPath>
</defs>
</svg>
