<svg width="16" height="15" viewBox="0 0 16 15" fill="none" xmlns="http://www.w3.org/2000/svg">
<path d="M12.473 7.45503C14.3911 7.45503 15.946 6.57169 15.946 5.48203C15.946 4.39238 14.3911 3.50903 12.473 3.50903C10.5549 3.50903 9 4.39238 9 5.48203C9 6.57169 10.5549 7.45503 12.473 7.45503Z" fill="#30B4FF"/>
<path fill-rule="evenodd" clip-rule="evenodd" d="M12.525 8.14498C10.041 8.14498 9.052 7.10398 9.052 6.50098V9.08398C9.052 10.174 10.607 11.056 12.525 11.056C14.445 11.056 16 10.174 16 9.08398V6.56298C16 7.16698 15.01 8.14498 12.525 8.14498Z" fill="#30B4FF"/>
<path fill-rule="evenodd" clip-rule="evenodd" d="M12.525 11.699C10.303 11.699 9.052 10.698 9.052 10.095V12.654C9.052 13.744 10.607 14.627 12.525 14.627C14.445 14.627 16 13.744 16 12.654V10.064C16 10.667 14.748 11.699 12.525 11.699Z" fill="#30B4FF"/>
<path d="M3.937 3.946C6.11135 3.946 7.874 3.06266 7.874 1.973C7.874 0.883342 6.11135 0 3.937 0C1.76266 0 0 0.883342 0 1.973C0 3.06266 1.76266 3.946 3.937 3.946Z" fill="#30B4FF"/>
<path fill-rule="evenodd" clip-rule="evenodd" d="M4.062 4.59004C1.247 4.59004 0.125 3.54904 0.125 2.94604V5.52904C0.125 6.61904 1.888 7.50105 4.062 7.50105C6.238 7.50105 8 6.61904 8 5.52904V3.00804C8 3.61204 6.877 4.59004 4.062 4.59004Z" fill="#30B4FF"/>
<path fill-rule="evenodd" clip-rule="evenodd" d="M4.062 8.13598C1.543 8.13598 0.125 7.13498 0.125 6.53198V9.09098C0.125 10.181 1.888 11.064 4.062 11.064C6.238 11.064 8 10.181 8 9.09098V6.50098C8 7.10398 6.58 8.13598 4.062 8.13598Z" fill="#30B4FF"/>
<path fill-rule="evenodd" clip-rule="evenodd" d="M4.062 11.699C1.543 11.699 0.125 10.698 0.125 10.095V12.654C0.125 13.744 1.888 14.627 4.062 14.627C6.238 14.627 8 13.744 8 12.654V10.064C8 10.667 6.58 11.699 4.062 11.699Z" fill="#30B4FF"/>
</svg>
