<svg width="16" height="12" viewBox="0 0 16 12" fill="none" xmlns="http://www.w3.org/2000/svg">
<path d="M15.0977 5.66816C14.4349 2.6716 13.4374 1.07222 11.9577 0.635349C11.6467 0.544114 11.324 0.498534 10.9999 0.500036C10.5715 0.500036 10.1983 0.604411 9.80365 0.715036C9.32803 0.848473 8.78771 1.00004 7.9999 1.00004C7.21209 1.00004 6.67146 0.848786 6.1949 0.715348C5.7999 0.604411 5.42709 0.500036 4.9999 0.500036C4.66472 0.498874 4.33101 0.544308 4.00834 0.635036C2.53646 1.07004 1.53959 2.66879 0.867089 5.66629C0.143964 8.89191 0.499901 10.9285 1.86521 11.401C2.05236 11.4669 2.24928 11.501 2.44771 11.5016C3.38303 11.5016 4.13303 10.7225 4.64553 10.0847C5.22459 9.36285 5.9024 8.9966 7.9999 8.9966C9.87334 8.9966 10.6487 9.25066 11.3183 10.0847C11.7393 10.6091 12.1371 10.976 12.534 11.2069C13.0618 11.5138 13.5893 11.5819 14.1015 11.406C14.9083 11.1307 15.3708 10.4028 15.4765 9.24222C15.5568 8.35222 15.433 7.18316 15.0977 5.66816ZM6.4999 5.50004H5.4999V6.50004C5.4999 6.63264 5.44722 6.75982 5.35345 6.85359C5.25969 6.94736 5.13251 7.00004 4.9999 7.00004C4.86729 7.00004 4.74012 6.94736 4.64635 6.85359C4.55258 6.75982 4.4999 6.63264 4.4999 6.50004V5.50004H3.4999C3.36729 5.50004 3.24012 5.44736 3.14635 5.35359C3.05258 5.25982 2.9999 5.13264 2.9999 5.00004C2.9999 4.86743 3.05258 4.74025 3.14635 4.64648C3.24012 4.55271 3.36729 4.50004 3.4999 4.50004H4.4999V3.50004C4.4999 3.36743 4.55258 3.24025 4.64635 3.14648C4.74012 3.05271 4.86729 3.00004 4.9999 3.00004C5.13251 3.00004 5.25969 3.05271 5.35345 3.14648C5.44722 3.24025 5.4999 3.36743 5.4999 3.50004V4.50004H6.4999C6.63251 4.50004 6.75969 4.55271 6.85345 4.64648C6.94722 4.74025 6.9999 4.86743 6.9999 5.00004C6.9999 5.13264 6.94722 5.25982 6.85345 5.35359C6.75969 5.44736 6.63251 5.50004 6.4999 5.50004ZM9.1249 5.62504C9.00129 5.62504 8.88045 5.58838 8.77767 5.5197C8.67489 5.45103 8.59478 5.35342 8.54748 5.23921C8.50017 5.12501 8.4878 4.99934 8.51191 4.8781C8.53603 4.75687 8.59555 4.6455 8.68296 4.55809C8.77037 4.47069 8.88173 4.41116 9.00297 4.38705C9.12421 4.36293 9.24988 4.37531 9.36408 4.42261C9.47828 4.46992 9.57589 4.55002 9.64457 4.6528C9.71325 4.75559 9.7499 4.87642 9.7499 5.00004C9.7499 5.1658 9.68405 5.32477 9.56684 5.44198C9.44963 5.55919 9.29066 5.62504 9.1249 5.62504ZM10.4999 7.00004C10.3762 7.00004 10.2553 6.96334 10.1525 6.89459C10.0497 6.82585 9.96959 6.72815 9.92233 6.61385C9.87507 6.49956 9.86279 6.37381 9.88703 6.25253C9.91127 6.13125 9.97095 6.01989 10.0585 5.93254C10.1461 5.8452 10.2576 5.78579 10.3789 5.76186C10.5003 5.73792 10.626 5.75052 10.7402 5.79806C10.8543 5.84561 10.9518 5.92596 11.0203 6.02894C11.0888 6.13193 11.1252 6.25292 11.1249 6.3766C11.1245 6.54209 11.0585 6.70066 10.9413 6.81753C10.8241 6.9344 10.6654 7.00004 10.4999 7.00004ZM10.4999 4.25004C10.3763 4.25004 10.2555 4.21338 10.1527 4.1447C10.0499 4.07603 9.96978 3.97842 9.92248 3.86421C9.87517 3.75001 9.8628 3.62434 9.88691 3.5031C9.91103 3.38187 9.97055 3.2705 10.058 3.18309C10.1454 3.09569 10.2567 3.03616 10.378 3.01205C10.4992 2.98793 10.6249 3.00031 10.7391 3.04761C10.8533 3.09492 10.9509 3.17502 11.0196 3.2778C11.0882 3.38059 11.1249 3.50142 11.1249 3.62504C11.1249 3.7908 11.0591 3.94977 10.9418 4.06698C10.8246 4.18419 10.6657 4.25004 10.4999 4.25004ZM11.8749 5.62504C11.7513 5.62504 11.6305 5.58838 11.5277 5.5197C11.4249 5.45103 11.3448 5.35342 11.2975 5.23921C11.2502 5.12501 11.2378 4.99934 11.2619 4.8781C11.286 4.75687 11.3456 4.6455 11.433 4.55809C11.5204 4.47069 11.6317 4.41116 11.753 4.38705C11.8742 4.36293 11.9999 4.37531 12.1141 4.42261C12.2283 4.46992 12.3259 4.55002 12.3946 4.6528C12.4632 4.75559 12.4999 4.87642 12.4999 5.00004C12.4999 5.1658 12.4341 5.32477 12.3168 5.44198C12.1996 5.55919 12.0407 5.62504 11.8749 5.62504Z" fill="#30B4FF"/>
</svg>
