<svg width="16" height="12" viewBox="0 0 16 12" fill="none" xmlns="http://www.w3.org/2000/svg">
<path d="M15.0978 5.66816C14.435 2.6716 13.4375 1.07222 11.9578 0.635349C11.6468 0.544114 11.3242 0.498534 11 0.500036C10.5716 0.500036 10.1985 0.604411 9.80377 0.715036C9.32815 0.848473 8.78784 1.00004 8.00002 1.00004C7.21221 1.00004 6.67159 0.848786 6.19502 0.715348C5.80002 0.604411 5.42721 0.500036 5.00002 0.500036C4.66484 0.498874 4.33113 0.544308 4.00846 0.635036C2.53659 1.07004 1.53971 2.66879 0.867211 5.66629C0.144086 8.89191 0.500023 10.9285 1.86534 11.401C2.05249 11.4669 2.2494 11.501 2.44784 11.5016C3.38315 11.5016 4.13315 10.7225 4.64565 10.0847C5.22471 9.36285 5.90252 8.9966 8.00002 8.9966C9.87346 8.9966 10.6488 9.25066 11.3185 10.0847C11.7394 10.6091 12.1372 10.976 12.5341 11.2069C13.0619 11.5138 13.5894 11.5819 14.1016 11.406C14.9085 11.1307 15.371 10.4028 15.4766 9.24222C15.5569 8.35222 15.4331 7.18316 15.0978 5.66816ZM6.50002 5.50004H5.50002V6.50004C5.50002 6.63264 5.44734 6.75982 5.35358 6.85359C5.25981 6.94736 5.13263 7.00004 5.00002 7.00004C4.86741 7.00004 4.74024 6.94736 4.64647 6.85359C4.5527 6.75982 4.50002 6.63264 4.50002 6.50004V5.50004H3.50002C3.36742 5.50004 3.24024 5.44736 3.14647 5.35359C3.0527 5.25982 3.00002 5.13264 3.00002 5.00004C3.00002 4.86743 3.0527 4.74025 3.14647 4.64648C3.24024 4.55271 3.36742 4.50004 3.50002 4.50004H4.50002V3.50004C4.50002 3.36743 4.5527 3.24025 4.64647 3.14648C4.74024 3.05271 4.86741 3.00004 5.00002 3.00004C5.13263 3.00004 5.25981 3.05271 5.35358 3.14648C5.44734 3.24025 5.50002 3.36743 5.50002 3.50004V4.50004H6.50002C6.63263 4.50004 6.75981 4.55271 6.85358 4.64648C6.94734 4.74025 7.00002 4.86743 7.00002 5.00004C7.00002 5.13264 6.94734 5.25982 6.85358 5.35359C6.75981 5.44736 6.63263 5.50004 6.50002 5.50004ZM9.12502 5.62504C9.00141 5.62504 8.88057 5.58838 8.77779 5.5197C8.67501 5.45103 8.5949 5.35342 8.5476 5.23921C8.50029 5.12501 8.48792 4.99934 8.51203 4.8781C8.53615 4.75687 8.59567 4.6455 8.68308 4.55809C8.77049 4.47069 8.88186 4.41116 9.00309 4.38705C9.12433 4.36293 9.25 4.37531 9.3642 4.42261C9.4784 4.46992 9.57602 4.55002 9.64469 4.6528C9.71337 4.75559 9.75002 4.87642 9.75002 5.00004C9.75002 5.1658 9.68418 5.32477 9.56697 5.44198C9.44976 5.55919 9.29078 5.62504 9.12502 5.62504ZM10.5 7.00004C10.3763 7.00004 10.2554 6.96334 10.1526 6.89459C10.0498 6.82585 9.96971 6.72815 9.92245 6.61385C9.87519 6.49956 9.86291 6.37381 9.88715 6.25253C9.91139 6.13125 9.97107 6.01989 10.0586 5.93254C10.1462 5.8452 10.2577 5.78579 10.3791 5.76186C10.5004 5.73792 10.6261 5.75052 10.7403 5.79806C10.8545 5.84561 10.952 5.92596 11.0205 6.02894C11.0889 6.13193 11.1253 6.25292 11.125 6.3766C11.1246 6.54209 11.0586 6.70066 10.9414 6.81753C10.8242 6.9344 10.6655 7.00004 10.5 7.00004ZM10.5 4.25004C10.3764 4.25004 10.2556 4.21338 10.1528 4.1447C10.05 4.07603 9.9699 3.97842 9.9226 3.86421C9.87529 3.75001 9.86292 3.62434 9.88703 3.5031C9.91115 3.38187 9.97067 3.2705 10.0581 3.18309C10.1455 3.09569 10.2569 3.03616 10.3781 3.01205C10.4993 2.98793 10.625 3.00031 10.7392 3.04761C10.8534 3.09492 10.951 3.17502 11.0197 3.2778C11.0884 3.38059 11.125 3.50142 11.125 3.62504C11.125 3.7908 11.0592 3.94977 10.942 4.06698C10.8248 4.18419 10.6658 4.25004 10.5 4.25004ZM11.875 5.62504C11.7514 5.62504 11.6306 5.58838 11.5278 5.5197C11.425 5.45103 11.3449 5.35342 11.2976 5.23921C11.2503 5.12501 11.2379 4.99934 11.262 4.8781C11.2861 4.75687 11.3457 4.6455 11.4331 4.55809C11.5205 4.47069 11.6319 4.41116 11.7531 4.38705C11.8743 4.36293 12 4.37531 12.1142 4.42261C12.2284 4.46992 12.326 4.55002 12.3947 4.6528C12.4634 4.75559 12.5 4.87642 12.5 5.00004C12.5 5.1658 12.4342 5.32477 12.317 5.44198C12.1998 5.55919 12.0408 5.62504 11.875 5.62504Z" fill="white"/>
</svg>
