<svg width="13" height="14" viewBox="0 0 13 14" fill="none" xmlns="http://www.w3.org/2000/svg">
<path d="M11 12V1.25C11 1.08585 10.9677 0.923303 10.9048 0.771646C10.842 0.619989 10.75 0.48219 10.6339 0.366117C10.5178 0.250043 10.38 0.157969 10.2284 0.0951506C10.0767 0.0323322 9.91415 0 9.75 0H1.25C0.918479 0 0.600537 0.131696 0.366117 0.366117C0.131696 0.600537 0 0.918479 0 1.25V12.25C0 12.7141 0.184374 13.1592 0.512563 13.4874C0.840752 13.8156 1.28587 14 1.75 14H12.4641C12.4688 14 12.4735 13.9991 12.4779 13.9973C12.4822 13.9956 12.4862 13.9929 12.4896 13.9896C12.4929 13.9862 12.4956 13.9822 12.4973 13.9779C12.4991 13.9735 12.5 13.9688 12.5 13.9641C12.5 13.9562 12.4974 13.9486 12.4926 13.9424C12.4878 13.9361 12.481 13.9317 12.4734 13.9297C12.0505 13.8137 11.6773 13.562 11.4111 13.2135C11.1449 12.8649 11.0005 12.4386 11 12ZM2 3C2 2.86739 2.05268 2.74021 2.14645 2.64645C2.24021 2.55268 2.36739 2.5 2.5 2.5H4.5C4.63261 2.5 4.75979 2.55268 4.85355 2.64645C4.94732 2.74021 5 2.86739 5 3V5C5 5.13261 4.94732 5.25979 4.85355 5.35355C4.75979 5.44732 4.63261 5.5 4.5 5.5H2.5C2.36739 5.5 2.24021 5.44732 2.14645 5.35355C2.05268 5.25979 2 5.13261 2 5V3ZM8.5 11.5H2.51406C2.245 11.5 2.01406 11.2931 2.00062 11.0241C1.99737 10.9565 2.00787 10.8889 2.0315 10.8255C2.05512 10.762 2.09138 10.7041 2.13807 10.6551C2.18476 10.6061 2.24091 10.5671 2.30313 10.5404C2.36534 10.5138 2.43232 10.5 2.5 10.5H8.48594C8.755 10.5 8.98594 10.7069 8.99938 10.9759C9.00263 11.0435 8.99213 11.1111 8.9685 11.1745C8.94488 11.238 8.90862 11.2959 8.86193 11.3449C8.81524 11.3939 8.75909 11.4329 8.69687 11.4596C8.63466 11.4862 8.56768 11.5 8.5 11.5ZM8.5 9.5H2.51406C2.245 9.5 2.01406 9.29312 2.00062 9.02406C1.99737 8.95646 2.00787 8.8889 2.0315 8.82547C2.05512 8.76204 2.09138 8.70407 2.13807 8.65508C2.18476 8.60608 2.24091 8.56707 2.30313 8.54041C2.36534 8.51375 2.43232 8.50001 2.5 8.5H8.48594C8.755 8.5 8.98594 8.70688 8.99938 8.97594C9.00263 9.04354 8.99213 9.1111 8.9685 9.17453C8.94488 9.23796 8.90862 9.29593 8.86193 9.34492C8.81524 9.39392 8.75909 9.43293 8.69687 9.45959C8.63466 9.48625 8.56768 9.49999 8.5 9.5ZM8.5 7.5H2.51406C2.245 7.5 2.01406 7.29312 2.00062 7.02406C1.99737 6.95646 2.00787 6.8889 2.0315 6.82547C2.05512 6.76204 2.09138 6.70407 2.13807 6.65508C2.18476 6.60608 2.24091 6.56707 2.30313 6.54041C2.36534 6.51375 2.43232 6.50001 2.5 6.5H8.48594C8.755 6.5 8.98594 6.70687 8.99938 6.97594C9.00263 7.04354 8.99213 7.1111 8.9685 7.17453C8.94488 7.23796 8.90862 7.29593 8.86193 7.34492C8.81524 7.39392 8.75909 7.43293 8.69687 7.45959C8.63466 7.48625 8.56768 7.49999 8.5 7.5ZM8.5 5.5H6.51406C6.245 5.5 6.01406 5.29313 6.00063 5.02406C5.99737 4.95646 6.00787 4.8889 6.0315 4.82547C6.05512 4.76204 6.09138 4.70407 6.13807 4.65508C6.18476 4.60608 6.24091 4.56707 6.30313 4.54041C6.36534 4.51375 6.43232 4.50001 6.5 4.5H8.48594C8.755 4.5 8.98594 4.70687 8.99938 4.97594C9.00263 5.04354 8.99213 5.1111 8.9685 5.17453C8.94488 5.23796 8.90862 5.29593 8.86193 5.34492C8.81524 5.39392 8.75909 5.43293 8.69687 5.45959C8.63466 5.48625 8.56768 5.49999 8.5 5.5ZM8.5 3.5H6.51406C6.245 3.5 6.01406 3.29313 6.00063 3.02406C5.99737 2.95646 6.00787 2.8889 6.0315 2.82547C6.05512 2.76204 6.09138 2.70407 6.13807 2.65508C6.18476 2.60608 6.24091 2.56707 6.30313 2.54041C6.36534 2.51375 6.43232 2.50001 6.5 2.5H8.48594C8.755 2.5 8.98594 2.70688 8.99938 2.97594C9.00263 3.04354 8.99213 3.1111 8.9685 3.17453C8.94488 3.23796 8.90862 3.29593 8.86193 3.34492C8.81524 3.39392 8.75909 3.43293 8.69687 3.45959C8.63466 3.48625 8.56768 3.49999 8.5 3.5Z" fill="#30B4FF"/>
</svg>
