<svg width="13" height="19" viewBox="0 0 13 19" fill="none" xmlns="http://www.w3.org/2000/svg">
<path d="M10.9722 0.555542H2.02778C1.68889 0.555542 1.36388 0.690165 1.12425 0.929794C0.884623 1.16942 0.75 1.49443 0.75 1.83332V17.1667C0.75 17.5055 0.884623 17.8305 1.12425 18.0702C1.36388 18.3098 1.68889 18.4444 2.02778 18.4444H10.9722C11.3111 18.4444 11.6361 18.3098 11.8757 18.0702C12.1154 17.8305 12.25 17.5055 12.25 17.1667V1.83332C12.25 1.49443 12.1154 1.16942 11.8757 0.929794C11.6361 0.690165 11.3111 0.555542 10.9722 0.555542ZM7.13889 17.1667H5.86111V15.8889H7.13889V17.1667ZM2.02778 14.6111V1.83332H10.9722V14.6111H2.02778Z" fill="#51C0FF" fill-opacity="0.941176"/>
</svg>
