<svg width="17" height="16" viewBox="0 0 17 16" fill="none" xmlns="http://www.w3.org/2000/svg">
<g clip-path="url(#clip0)">
<path d="M16.5 5.50003C16.5 8.53759 14.0376 11 11 11C10.6494 11 10.3066 10.9668 9.97416 10.9041L9.22378 11.7483C9.15342 11.8274 9.06708 11.8908 8.97046 11.9342C8.87385 11.9776 8.76913 12 8.66322 12H7.5V13.25C7.5 13.6642 7.16422 14 6.75 14H5.5V15.25C5.5 15.6642 5.16422 16 4.75 16H1.25C0.835781 16 0.5 15.6642 0.5 15.25V12.8107C0.5 12.6118 0.579031 12.421 0.719656 12.2803L5.77597 7.224C5.59712 6.68169 5.5 6.10222 5.5 5.5C5.5 2.46244 7.96241 3.12503e-05 11 2.98518e-10C14.0465 -3.12497e-05 16.5 2.45347 16.5 5.50003ZM11 4C11 4.82844 11.6716 5.5 12.5 5.5C13.3284 5.5 14 4.82844 14 4C14 3.17156 13.3284 2.5 12.5 2.5C11.6716 2.5 11 3.17156 11 4Z" fill="white"/>
</g>
<defs>
<clipPath id="clip0">
<rect width="16" height="16" fill="white" transform="translate(0.5)"/>
</clipPath>
</defs>
</svg>
