<svg width="18" height="16" viewBox="0 0 18 16" fill="none" xmlns="http://www.w3.org/2000/svg">
<path d="M8.27551 3.62377L8.99857 4.38064L9.72164 3.62377C10.4507 2.86059 11.5742 1.99146 12.7455 1.99146C13.8955 1.99146 14.8119 2.38828 15.4384 3.01369C16.0648 3.63899 16.4617 4.5529 16.4617 5.69915C16.4617 6.93508 15.9826 7.97811 15.1855 8.97162C14.3692 9.98903 13.2712 10.8936 12.0888 11.8624C12.0887 11.8625 12.0887 11.8625 12.0886 11.8626L12.0645 11.8823C11.0432 12.7188 9.91196 13.6452 8.99907 14.6813C8.09516 13.6542 6.97461 12.7351 5.96234 11.9048L5.91124 11.8629L5.91084 11.8626C4.7281 10.8934 3.63016 9.98858 2.81414 8.97117C2.01731 7.97769 1.53857 6.93481 1.53857 5.69915C1.53857 4.5529 1.93541 3.63902 2.56185 3.01374C3.18842 2.38833 4.10503 1.99146 5.2555 1.99146C6.42549 1.99146 7.54562 2.85977 8.27551 3.62377Z" stroke="white" stroke-width="2"/>
</svg>
