<svg xmlns="http://www.w3.org/2000/svg" viewBox="0 0 207 80" width="207" height="80">
	<defs>
		<linearGradient id="grd1" gradientUnits="userSpaceOnUse"  x1="14.565" y1="13.322" x2="63.183" y2="60.968">
			<stop offset="0" stop-color="#30b4ff"  />
			<stop offset="1" stop-color="#3051ff"  />
		</linearGradient>
	</defs>
	<style>
		tspan { white-space:pre }
		.shp0 { fill: url(#grd1) } 
		.shp1 { fill: #ffffff } 
	</style>
	<g id="Layer">
		<path id="Layer" fill-rule="evenodd" class="shp0" d="M37.28 76.17C37.03 76.31 36.71 76.31 36.46 76.17L4.42 57.85C4.16 57.7 4 57.43 4 57.13L4 20.51C4 20.22 4.16 19.94 4.42 19.79L36.46 1.48C36.71 1.33 37.03 1.33 37.28 1.48L69.32 19.79C69.58 19.94 69.74 20.22 69.74 20.51L69.74 57.13C69.74 57.43 69.58 57.7 69.32 57.85L37.28 76.17ZM57.95 47.17C57.95 47.47 58.11 47.74 58.37 47.89L62.87 50.46C63.42 50.77 64.1 50.37 64.1 49.74L64.1 27.9C64.1 27.27 63.42 26.87 62.87 27.18L58.37 29.75C58.11 29.9 57.95 30.18 57.95 30.47L57.95 47.17ZM40.11 61.08C39.85 61.22 39.69 61.5 39.69 61.79L39.69 66.92C39.69 67.55 40.38 67.95 40.93 67.64L60.03 56.72C60.58 56.4 60.58 55.6 60.03 55.28L55.55 52.72C55.29 52.57 54.98 52.57 54.72 52.72L40.11 61.08ZM60.03 22.36C60.58 22.04 60.58 21.24 60.03 20.92L40.93 10.01C40.38 9.69 39.69 10.09 39.69 10.73L39.69 15.85C39.69 16.15 39.85 16.42 40.11 16.57L54.72 24.92C54.98 25.07 55.29 25.07 55.55 24.92L60.03 22.36ZM34.05 10.73C34.05 10.09 33.36 9.69 32.81 10.01L13.71 20.92C13.16 21.24 13.16 22.04 13.71 22.36L18.19 24.92C18.45 25.07 18.76 25.07 19.02 24.92L33.64 16.57C33.89 16.42 34.05 16.15 34.05 15.85L34.05 10.73ZM15.37 47.89C15.63 47.74 15.79 47.47 15.79 47.17L15.79 30.47C15.79 30.18 15.63 29.9 15.37 29.75L10.88 27.18C10.32 26.87 9.64 27.27 9.64 27.9L9.64 49.74C9.64 50.38 10.32 50.77 10.88 50.46L15.37 47.89ZM13.71 55.28C13.16 55.6 13.16 56.4 13.71 56.72L32.81 67.64C33.36 67.95 34.05 67.55 34.05 66.92L34.05 61.79C34.05 61.5 33.89 61.22 33.64 61.08L19.02 52.72C18.76 52.57 18.45 52.57 18.19 52.72L13.71 55.28ZM52.32 30.47C52.32 30.18 52.16 29.9 51.9 29.75L37.28 21.4C37.03 21.25 36.71 21.25 36.46 21.4L21.84 29.75C21.58 29.9 21.42 30.18 21.42 30.47L21.42 47.17C21.42 47.47 21.58 47.74 21.84 47.89L36.46 56.25C36.71 56.39 37.03 56.39 37.28 56.25L51.9 47.89C52.16 47.74 52.32 47.47 52.32 47.17L52.32 30.47Z" />
	</g>
	<path id="Layer" fill-rule="evenodd" class="shp1" d="M98.94 27.99C99.72 28.35 100.32 28.86 100.73 29.53C101.16 30.18 101.38 30.95 101.38 31.85C101.38 33.24 100.84 34.32 99.77 35.1C98.72 35.85 97.21 36.23 95.23 36.23L86.95 36.23L86.95 20.5L94.84 20.5C96.79 20.5 98.26 20.88 99.25 21.64C100.24 22.39 100.73 23.39 100.73 24.64C100.73 25.34 100.58 25.98 100.28 26.56C99.97 27.13 99.53 27.61 98.94 27.99ZM92.35 24.61L92.35 26.45L94.1 26.45C94.85 26.45 95.23 26.15 95.23 25.56C95.23 24.93 94.85 24.61 94.1 24.61L92.35 24.61ZM94.8 32.12C95.13 32.12 95.39 32.04 95.59 31.88C95.78 31.7 95.87 31.46 95.87 31.15C95.87 30.85 95.78 30.61 95.59 30.45C95.41 30.27 95.15 30.18 94.8 30.18L92.35 30.18L92.35 32.12L94.8 32.12Z" />
	<path id="Layer" fill-rule="evenodd" class="shp1" d="M109.03 32.5L108.57 32.5L108.57 36.23L103.07 36.23L103.07 20.5L110.23 20.5C111.55 20.5 112.71 20.75 113.7 21.26C114.7 21.75 115.47 22.45 116.02 23.37C116.56 24.27 116.83 25.33 116.83 26.56C116.83 27.67 116.61 28.66 116.16 29.5C115.71 30.33 115.08 31 114.25 31.5L117.14 36.23L111.28 36.23L109.03 32.5ZM111.33 26.56C111.33 26.11 111.2 25.75 110.94 25.48C110.69 25.2 110.31 25.07 109.8 25.07L108.57 25.07L108.57 28.04L109.8 28.04C110.31 28.04 110.69 27.91 110.94 27.64C111.2 27.37 111.33 27.01 111.33 26.56Z" />
	<path id="Layer" class="shp1" d="M118.89 20.5L124.4 20.5L124.4 36.23L118.89 36.23L118.89 20.5Z" />
	<path id="Layer" class="shp1" d="M126.93 20.5L132.44 20.5L132.44 31.64L138.49 31.64L138.49 36.23L126.93 36.23L126.93 20.5Z" />
	<path id="Layer" class="shp1" d="M139.92 20.5L145.43 20.5L145.43 31.64L151.48 31.64L151.48 36.23L139.92 36.23L139.92 20.5Z" />
	<path id="Layer" class="shp1" d="M152.92 20.5L158.42 20.5L158.42 36.23L152.92 36.23L152.92 20.5Z" />
	<path id="Layer" fill-rule="evenodd" class="shp1" d="M170.77 33.8L165.36 33.8L164.52 36.23L159.26 36.23L165.38 20.5L170.79 20.5L176.92 36.23L171.58 36.23L170.77 33.8ZM169.35 29.64L168.09 25.93L166.79 29.64L169.35 29.64Z" />
	<path id="Layer" class="shp1" d="M192.21 20.5L192.21 36.23L187.69 36.23L183.12 30.26L183.12 36.23L177.76 36.23L177.76 20.5L182.28 20.5L186.85 26.53L186.85 20.5L192.21 20.5Z" />
	<path id="Layer" class="shp1" d="M197.52 25.1L193.55 25.1L193.55 20.5L207 20.5L207 25.1L203.03 25.1L203.03 36.23L197.52 36.23L197.52 25.1Z" />
	<path id="Layer" fill-rule="evenodd" class="shp1" d="M94.31 55.92L91.94 52.07C91.84 52.08 91.67 52.09 91.44 52.09L88.83 52.09L88.83 55.92L86.95 55.92L86.95 43.04L91.44 43.04C92.9 43.04 94.05 43.44 94.89 44.24C95.73 45.04 96.15 46.15 96.15 47.57C96.15 48.56 95.93 49.4 95.51 50.09C95.09 50.79 94.5 51.31 93.73 51.66L96.34 55.92L94.31 55.92ZM91.32 50.3C92.28 50.3 93 50.06 93.49 49.59C94 49.12 94.25 48.45 94.25 47.57C94.25 46.7 94 46.02 93.49 45.56C93 45.09 92.28 44.85 91.32 44.85L88.83 44.85L88.83 50.3L91.32 50.3Z" />
	<path id="Layer" fill-rule="evenodd" class="shp1" d="M108.56 56.1C107.44 56.1 106.42 55.82 105.5 55.24C104.58 54.67 103.87 53.88 103.35 52.88C102.83 51.87 102.57 50.74 102.57 49.48C102.57 48.22 102.83 47.1 103.35 46.1C103.87 45.09 104.58 44.29 105.5 43.72C106.42 43.14 107.44 42.86 108.56 42.86C109.7 42.86 110.72 43.14 111.62 43.72C112.54 44.29 113.25 45.09 113.77 46.1C114.29 47.1 114.55 48.22 114.55 49.48C114.55 50.74 114.29 51.87 113.77 52.88C113.25 53.88 112.54 54.67 111.62 55.24C110.72 55.82 109.7 56.1 108.56 56.1ZM108.56 54.2C109.34 54.2 110.03 53.99 110.65 53.59C111.27 53.18 111.76 52.62 112.1 51.91C112.47 51.2 112.65 50.39 112.65 49.48C112.65 48.57 112.47 47.76 112.1 47.05C111.76 46.34 111.27 45.78 110.65 45.37C110.03 44.97 109.34 44.76 108.56 44.76C107.79 44.76 107.09 44.97 106.47 45.37C105.85 45.78 105.36 46.34 105 47.05C104.65 47.76 104.47 48.57 104.47 49.48C104.47 50.39 104.65 51.2 105 51.91C105.36 52.62 105.85 53.18 106.47 53.59C107.09 53.99 107.79 54.2 108.56 54.2Z" />
	<path id="Layer" class="shp1" d="M121.73 43.04L123.61 43.04L123.61 54.09L129.52 54.09L129.52 55.92L121.73 55.92L121.73 43.04Z" />
	<path id="Layer" class="shp1" d="M144.26 54.09L144.26 55.92L136 55.92L136 43.04L144.04 43.04L144.04 44.85L137.88 44.85L137.88 48.48L143.37 48.48L143.37 50.27L137.88 50.27L137.88 54.09L144.26 54.09Z" />
	<path id="Layer" fill-rule="evenodd" class="shp1" d="M156 43.04C157.46 43.04 158.61 43.44 159.45 44.24C160.29 45.04 160.71 46.15 160.71 47.57C160.71 49.01 160.29 50.13 159.45 50.93C158.61 51.73 157.46 52.13 156 52.13L153.38 52.13L153.38 55.92L151.51 55.92L151.51 43.04L156 43.04ZM155.88 50.3C156.84 50.3 157.56 50.06 158.05 49.59C158.56 49.12 158.81 48.45 158.81 47.57C158.81 46.7 158.56 46.02 158.05 45.56C157.56 45.09 156.84 44.85 155.88 44.85L153.38 44.85L153.38 50.3L155.88 50.3Z" />
	<path id="Layer" class="shp1" d="M168.03 43.04L169.91 43.04L169.91 54.09L175.81 54.09L175.81 55.92L168.03 55.92L168.03 43.04Z" />
	<path id="Layer" fill-rule="evenodd" class="shp1" d="M189.37 52.86L183.46 52.86L182.3 55.92L180.46 55.92L185.5 43.04L187.36 43.04L192.41 55.92L190.51 55.92L189.37 52.86ZM188.71 51.11L186.43 45.03L184.12 51.11L188.71 51.11Z" />
	<path id="Layer" class="shp1" d="M202.47 51.73L202.47 55.92L200.59 55.92L200.59 51.66L196.08 43.04L198.07 43.04L201.58 49.64L205.06 43.04L207 43.04L202.47 51.73Z" />
</svg>