<svg width="20" height="23" viewBox="0 0 20 23" fill="none" xmlns="http://www.w3.org/2000/svg">
<path fill-rule="evenodd" clip-rule="evenodd" d="M10.125 22.7549C10.0477 22.7993 9.95248 22.7993 9.87515 22.7549L0.126876 17.1827C0.0484127 17.1379 0 17.0545 0 16.9641V5.82412C0 5.73369 0.0484127 5.65032 0.126876 5.60548L9.87515 0.0332113C9.95248 -0.0110704 10.0477 -0.0110704 10.125 0.0332113L19.8733 5.60548C19.9516 5.65032 20 5.73369 20 5.82412V16.9641C20 17.0545 19.9516 17.1379 19.8733 17.1827L10.125 22.7549ZM16.4144 13.9341C16.4144 14.0245 16.4628 14.1082 16.5413 14.153L17.9083 14.9344C18.0761 15.0303 18.2852 14.9089 18.2852 14.7157V8.07246C18.2852 7.87926 18.0761 7.75785 17.9083 7.85382L16.5413 8.63518C16.4628 8.68001 16.4144 8.76364 16.4144 8.85406V13.9341ZM15.432 15.6223C15.5094 15.5779 15.6046 15.5779 15.6819 15.6223L17.0451 16.4014C17.2144 16.4981 17.2144 16.7422 17.0451 16.8389L11.2343 20.1603C11.0666 20.2562 10.8575 20.1351 10.8575 19.9416V18.3832C10.8575 18.2928 10.9059 18.2094 10.9845 18.1646L15.432 15.6223ZM17.0451 6.38683C17.2144 6.29011 17.2144 6.04603 17.0451 5.9493L11.2343 2.62787C11.0666 2.5319 10.8575 2.65314 10.8575 2.84656V4.40501C10.8575 4.49539 10.9059 4.57884 10.9845 4.6237L15.432 7.16592C15.5094 7.21025 15.6046 7.21025 15.6819 7.16592L17.0451 6.38683ZM9.14266 2.84651C9.14266 2.65311 8.9336 2.53185 8.76584 2.62785L2.95496 5.9493C2.78577 6.04603 2.78577 6.29011 2.95496 6.38683L4.31817 7.16592C4.39563 7.21025 4.49072 7.21025 4.56817 7.16592L9.01571 4.62367C9.0943 4.57884 9.14266 4.49539 9.14266 4.40501V2.84651ZM2.0918 14.9344C1.92386 15.0303 1.7149 14.9092 1.7149 14.7157V8.07246C1.7149 7.87901 1.92386 7.75785 2.0918 7.85382L3.45881 8.63518C3.53727 8.68001 3.58569 8.76364 3.58569 8.85406V13.9344C3.58569 14.0245 3.53727 14.1082 3.45881 14.153L2.0918 14.9344ZM2.95499 16.4014C2.78579 16.4981 2.78579 16.7422 2.95499 16.8389L8.76559 20.1603C8.9336 20.2562 9.14266 20.1351 9.14266 19.9416V18.3832C9.14266 18.2928 9.09405 18.2094 9.01571 18.1646L4.56815 15.6223C4.49069 15.5779 4.3956 15.5779 4.31815 15.6223L2.95499 16.4014ZM14.6995 13.9344C14.6995 14.0245 14.6512 14.1082 14.5726 14.153L10.125 16.6953C10.0477 16.7394 9.95248 16.7394 9.87515 16.6953L5.42758 14.153C5.349 14.1082 5.30063 14.0245 5.30063 13.9344V8.85406C5.30063 8.76364 5.349 8.68026 5.42758 8.63543L9.87515 6.09313C9.95248 6.0488 10.0477 6.0488 10.125 6.09313L14.5726 8.63543C14.6512 8.68026 14.6995 8.76364 14.6995 8.85406V13.9344Z" fill="url(#paint0_linear)"/>
<defs>
<linearGradient id="paint0_linear" x1="3.21425" y1="3.63648" x2="18.0051" y2="18.1316" gradientUnits="userSpaceOnUse">
<stop stop-color="#30B4FF"/>
<stop offset="1" stop-color="#3051FF"/>
</linearGradient>
</defs>
</svg>
