<svg width="14" height="12" viewBox="0 0 14 12" fill="none" xmlns="http://www.w3.org/2000/svg">
<path d="M12.25 0.5H1.75C1.28602 0.500496 0.841192 0.68503 0.513111 1.01311C0.18503 1.34119 0.00049632 1.78602 0 2.25V9.75C0.00049632 10.214 0.18503 10.6588 0.513111 10.9869C0.841192 11.315 1.28602 11.4995 1.75 11.5H12.25C12.714 11.4995 13.1588 11.315 13.4869 10.9869C13.815 10.6588 13.9995 10.214 14 9.75V2.25C13.9995 1.78602 13.815 1.34119 13.4869 1.01311C13.1588 0.68503 12.714 0.500496 12.25 0.5ZM11.8069 3.39469L7.30688 6.89469C7.21912 6.9629 7.11115 6.99994 7 6.99994C6.88885 6.99994 6.78088 6.9629 6.69312 6.89469L2.19313 3.39469C2.14025 3.35476 2.09585 3.30472 2.06248 3.24749C2.02911 3.19025 2.00746 3.12695 1.99877 3.06127C1.99007 2.99559 1.99452 2.92884 2.01185 2.86489C2.02919 2.80094 2.05905 2.74108 2.09972 2.68878C2.14039 2.63647 2.19104 2.59277 2.24874 2.56021C2.30645 2.52766 2.37004 2.50689 2.43584 2.49913C2.50164 2.49136 2.56832 2.49675 2.63201 2.51498C2.69571 2.53321 2.75515 2.56391 2.80687 2.60531L7 5.86656L11.1931 2.60531C11.298 2.52613 11.4298 2.4914 11.56 2.50864C11.6903 2.52587 11.8085 2.59369 11.8892 2.69741C11.9698 2.80114 12.0064 2.93244 11.991 3.06293C11.9756 3.19341 11.9095 3.31259 11.8069 3.39469Z" fill="#6D829B"/>
</svg>
