<svg xmlns="http://www.w3.org/2000/svg" viewBox="0 0 240 56" width="240" height="56">
	<style>
		tspan { white-space:pre }
		.shp0 { fill: #ffffff } 
		.shp1 { fill: #30b4ff } 
	</style>
	<path id="Layer" fill-rule="evenodd" class="shp0" d="M36.31 91L35.18 91L35.18 83.4L30.98 83.4L30.98 91L29.85 91L29.85 82.47L36.31 82.47L36.31 91ZM43.55 87.9C43.55 88.87 43.33 89.64 42.89 90.23C42.45 90.82 41.85 91.12 41.1 91.12C40.33 91.12 39.72 90.87 39.28 90.38L39.28 93.44L38.2 93.44L38.2 84.66L39.19 84.66L39.24 85.36C39.68 84.82 40.29 84.54 41.08 84.54C41.84 84.54 42.44 84.83 42.88 85.4C43.33 85.98 43.55 86.78 43.55 87.8L43.55 87.9ZM42.47 87.78C42.47 87.06 42.31 86.5 42.01 86.08C41.71 85.67 41.29 85.46 40.76 85.46C40.1 85.46 39.61 85.75 39.28 86.34L39.28 89.37C39.6 89.94 40.1 90.23 40.77 90.23C41.29 90.23 41.7 90.03 42 89.62C42.31 89.2 42.47 88.59 42.47 87.78ZM44.65 87.77C44.65 87.15 44.77 86.59 45.01 86.1C45.26 85.6 45.6 85.22 46.03 84.95C46.47 84.68 46.96 84.54 47.52 84.54C48.39 84.54 49.08 84.84 49.62 85.44C50.15 86.04 50.42 86.83 50.42 87.82L50.42 87.9C50.42 88.52 50.3 89.07 50.06 89.56C49.83 90.05 49.49 90.43 49.05 90.71C48.61 90.98 48.11 91.12 47.54 91.12C46.68 91.12 45.98 90.82 45.44 90.22C44.91 89.62 44.65 88.83 44.65 87.85L44.65 87.77ZM45.74 87.9C45.74 88.6 45.9 89.17 46.22 89.59C46.55 90.02 46.99 90.23 47.54 90.23C48.09 90.23 48.52 90.02 48.85 89.59C49.17 89.15 49.33 88.55 49.33 87.77C49.33 87.08 49.17 86.51 48.84 86.08C48.51 85.65 48.07 85.43 47.52 85.43C46.99 85.43 46.56 85.65 46.23 86.07C45.9 86.5 45.74 87.11 45.74 87.9ZM51.88 91L51.88 84.66L54.35 84.66C55.19 84.66 55.84 84.81 56.29 85.1C56.74 85.4 56.97 85.83 56.97 86.4C56.97 86.69 56.88 86.96 56.71 87.2C56.53 87.43 56.27 87.61 55.93 87.74C56.31 87.83 56.62 88 56.85 88.26C57.08 88.53 57.2 88.84 57.2 89.2C57.2 89.78 56.98 90.23 56.55 90.54C56.13 90.85 55.52 91 54.74 91L51.88 91ZM52.96 88.22L52.96 90.13L54.75 90.13C55.21 90.13 55.54 90.04 55.77 89.88C55.99 89.71 56.11 89.47 56.11 89.17C56.11 88.53 55.64 88.22 54.71 88.22L52.96 88.22ZM52.96 87.35L54.36 87.35C55.38 87.35 55.88 87.05 55.88 86.46C55.88 85.87 55.4 85.56 54.44 85.54L52.96 85.54L52.96 87.35ZM61.26 91.12C60.4 91.12 59.71 90.84 59.17 90.27C58.63 89.71 58.36 88.95 58.36 88.01L58.36 87.81C58.36 87.18 58.48 86.62 58.71 86.13C58.96 85.63 59.29 85.24 59.72 84.97C60.16 84.68 60.63 84.54 61.13 84.54C61.95 84.54 62.59 84.81 63.05 85.36C63.51 85.9 63.74 86.68 63.74 87.69L63.74 88.14L59.44 88.14C59.46 88.77 59.64 89.27 59.99 89.66C60.34 90.04 60.78 90.23 61.32 90.23C61.71 90.23 62.03 90.15 62.29 90C62.56 89.84 62.79 89.63 62.99 89.38L63.65 89.89C63.12 90.71 62.33 91.12 61.26 91.12ZM61.13 85.43C60.69 85.43 60.32 85.59 60.03 85.91C59.73 86.23 59.55 86.68 59.48 87.25L62.65 87.25L62.65 87.17C62.62 86.62 62.47 86.19 62.21 85.89C61.94 85.59 61.58 85.43 61.13 85.43ZM70.35 87.9C70.35 88.87 70.13 89.64 69.69 90.23C69.25 90.82 68.65 91.12 67.9 91.12C67.13 91.12 66.52 90.87 66.08 90.38L66.08 93.44L65 93.44L65 84.66L65.99 84.66L66.04 85.36C66.48 84.82 67.09 84.54 67.88 84.54C68.64 84.54 69.24 84.83 69.68 85.4C70.13 85.98 70.35 86.78 70.35 87.8L70.35 87.9ZM69.27 87.78C69.27 87.06 69.12 86.5 68.81 86.08C68.51 85.67 68.09 85.46 67.56 85.46C66.9 85.46 66.41 85.75 66.08 86.34L66.08 89.37C66.4 89.94 66.9 90.23 67.57 90.23C68.09 90.23 68.5 90.03 68.8 89.62C69.11 89.2 69.27 88.59 69.27 87.78ZM72.92 86.85L74.56 86.85C75.28 86.85 75.85 87.04 76.27 87.41C76.69 87.78 76.9 88.27 76.9 88.9C76.9 89.53 76.68 90.04 76.25 90.43C75.82 90.81 75.24 91 74.52 91L71.83 91L71.83 84.66L72.92 84.66L72.92 86.85ZM72.92 87.73L72.92 90.12L74.53 90.12C74.94 90.12 75.25 90.01 75.47 89.81C75.7 89.59 75.81 89.31 75.81 88.94C75.81 88.59 75.7 88.31 75.48 88.08C75.26 87.85 74.96 87.74 74.57 87.73L72.92 87.73ZM82.55 85.54L80.42 85.54L80.42 91L79.34 91L79.34 85.54L77.25 85.54L77.25 84.66L82.55 84.66L82.55 85.54ZM85.77 91.12C84.91 91.12 84.21 90.84 83.67 90.27C83.13 89.71 82.86 88.95 82.86 88.01L82.86 87.81C82.86 87.18 82.98 86.62 83.22 86.13C83.46 85.63 83.8 85.24 84.23 84.97C84.66 84.68 85.13 84.54 85.63 84.54C86.46 84.54 87.1 84.81 87.55 85.36C88.01 85.9 88.24 86.68 88.24 87.69L88.24 88.14L83.95 88.14C83.96 88.77 84.14 89.27 84.49 89.66C84.84 90.04 85.29 90.23 85.83 90.23C86.21 90.23 86.53 90.15 86.8 90C87.06 89.84 87.3 89.63 87.5 89.38L88.16 89.89C87.63 90.71 86.83 91.12 85.77 91.12ZM85.63 85.43C85.2 85.43 84.83 85.59 84.53 85.91C84.23 86.23 84.05 86.68 83.98 87.25L87.16 87.25L87.16 87.17C87.13 86.62 86.98 86.19 86.71 85.89C86.45 85.59 86.09 85.43 85.63 85.43ZM95.02 90.23C95.41 90.23 95.74 90.12 96.03 89.88C96.32 89.65 96.48 89.35 96.51 89L97.54 89C97.52 89.37 97.39 89.71 97.16 90.04C96.93 90.37 96.63 90.63 96.24 90.82C95.86 91.02 95.45 91.12 95.02 91.12C94.16 91.12 93.47 90.83 92.96 90.26C92.45 89.68 92.2 88.89 92.2 87.89L92.2 87.71C92.2 87.09 92.31 86.54 92.54 86.06C92.76 85.58 93.09 85.21 93.51 84.94C93.93 84.68 94.44 84.54 95.01 84.54C95.72 84.54 96.31 84.76 96.78 85.18C97.26 85.61 97.51 86.16 97.54 86.84L96.51 86.84C96.48 86.43 96.33 86.09 96.04 85.83C95.77 85.57 95.42 85.43 95.01 85.43C94.46 85.43 94.04 85.63 93.73 86.03C93.43 86.43 93.28 87 93.28 87.75L93.28 87.95C93.28 88.68 93.43 89.25 93.73 89.64C94.03 90.03 94.46 90.23 95.02 90.23ZM98.86 91L98.86 84.66L101.33 84.66C102.17 84.66 102.82 84.81 103.27 85.1C103.72 85.4 103.95 85.83 103.95 86.4C103.95 86.69 103.86 86.96 103.69 87.2C103.51 87.43 103.25 87.61 102.91 87.74C103.29 87.83 103.6 88 103.83 88.26C104.06 88.53 104.18 88.84 104.18 89.2C104.18 89.78 103.96 90.23 103.53 90.54C103.11 90.85 102.5 91 101.72 91L98.86 91ZM99.94 88.22L99.94 90.13L101.73 90.13C102.19 90.13 102.53 90.04 102.75 89.88C102.97 89.71 103.09 89.47 103.09 89.17C103.09 88.53 102.62 88.22 101.69 88.22L99.94 88.22ZM99.94 87.35L101.34 87.35C102.36 87.35 102.86 87.05 102.86 86.46C102.86 85.87 102.39 85.56 101.42 85.54L99.94 85.54L99.94 87.35ZM105.33 87.77C105.33 87.15 105.45 86.59 105.69 86.1C105.94 85.6 106.28 85.22 106.71 84.95C107.15 84.68 107.64 84.54 108.2 84.54C109.07 84.54 109.76 84.84 110.3 85.44C110.83 86.04 111.1 86.83 111.1 87.82L111.1 87.9C111.1 88.52 110.98 89.07 110.74 89.56C110.51 90.05 110.17 90.43 109.73 90.71C109.29 90.98 108.78 91.12 108.22 91.12C107.36 91.12 106.66 90.82 106.12 90.22C105.59 89.62 105.33 88.83 105.33 87.85L105.33 87.77ZM106.42 87.9C106.42 88.6 106.58 89.17 106.9 89.59C107.23 90.02 107.67 90.23 108.22 90.23C108.77 90.23 109.2 90.02 109.53 89.59C109.85 89.15 110.01 88.55 110.01 87.77C110.01 87.08 109.85 86.51 109.52 86.08C109.19 85.65 108.75 85.43 108.2 85.43C107.67 85.43 107.24 85.65 106.91 86.07C106.58 86.5 106.42 87.11 106.42 87.9ZM116.56 84.66L117.64 84.66L117.64 91L116.56 91L116.56 86.38L113.64 91L112.55 91L112.55 84.66L113.64 84.66L113.64 89.29L116.56 84.66ZM116.85 82.35C116.85 82.82 116.69 83.21 116.36 83.49C116.05 83.78 115.62 83.92 115.1 83.92C114.58 83.92 114.15 83.78 113.83 83.49C113.5 83.2 113.34 82.82 113.34 82.35L114.23 82.35C114.23 82.63 114.3 82.84 114.45 83C114.6 83.15 114.81 83.22 115.1 83.22C115.37 83.22 115.59 83.15 115.74 83C115.89 82.84 115.97 82.63 115.97 82.35L116.85 82.35ZM127.55 91L126.46 91L126.46 85.56L123.54 85.56L123.54 91L122.45 91L122.45 84.66L127.55 84.66L127.55 91ZM129 87.77C129 87.15 129.12 86.59 129.36 86.1C129.61 85.6 129.95 85.22 130.38 84.95C130.82 84.68 131.32 84.54 131.88 84.54C132.74 84.54 133.44 84.84 133.97 85.44C134.5 86.04 134.77 86.83 134.77 87.82L134.77 87.9C134.77 88.52 134.65 89.07 134.41 89.56C134.18 90.05 133.84 90.43 133.4 90.71C132.96 90.98 132.46 91.12 131.89 91.12C131.03 91.12 130.33 90.82 129.79 90.22C129.26 89.62 129 88.83 129 87.85L129 87.77ZM130.09 87.9C130.09 88.6 130.25 89.17 130.57 89.59C130.9 90.02 131.34 90.23 131.89 90.23C132.44 90.23 132.88 90.02 133.2 89.59C133.52 89.15 133.69 88.55 133.69 87.77C133.69 87.08 133.52 86.51 133.19 86.08C132.86 85.65 132.42 85.43 131.88 85.43C131.34 85.43 130.91 85.65 130.58 86.07C130.25 86.5 130.09 87.11 130.09 87.9ZM140.92 91L139.83 91L139.83 88.7C139.35 88.83 138.86 88.89 138.36 88.89C137.57 88.89 136.96 88.69 136.54 88.28C136.13 87.88 135.92 87.3 135.91 86.55L135.91 84.65L137 84.65L137 86.58C137.02 87.53 137.47 88 138.36 88C138.86 88 139.35 87.94 139.83 87.81L139.83 84.66L140.92 84.66L140.92 91ZM147.37 85.54L145.24 85.54L145.24 91L144.16 91L144.16 85.54L142.07 85.54L142.07 84.66L147.37 84.66L147.37 85.54ZM147.89 87.77C147.89 87.15 148.01 86.59 148.25 86.1C148.5 85.6 148.84 85.22 149.27 84.95C149.71 84.68 150.21 84.54 150.77 84.54C151.63 84.54 152.33 84.84 152.86 85.44C153.39 86.04 153.66 86.83 153.66 87.82L153.66 87.9C153.66 88.52 153.54 89.07 153.3 89.56C153.07 90.05 152.73 90.43 152.29 90.71C151.85 90.98 151.35 91.12 150.78 91.12C149.92 91.12 149.22 90.82 148.69 90.22C148.15 89.62 147.89 88.83 147.89 87.85L147.89 87.77ZM148.98 87.9C148.98 88.6 149.14 89.17 149.47 89.59C149.79 90.02 150.23 90.23 150.78 90.23C151.33 90.23 151.77 90.02 152.09 89.59C152.41 89.15 152.58 88.55 152.58 87.77C152.58 87.08 152.41 86.51 152.08 86.08C151.75 85.65 151.31 85.43 150.77 85.43C150.23 85.43 149.8 85.65 149.47 86.07C149.14 86.5 148.98 87.11 148.98 87.9ZM155.12 91L155.12 84.66L157.59 84.66C158.44 84.66 159.08 84.81 159.53 85.1C159.98 85.4 160.21 85.83 160.21 86.4C160.21 86.69 160.12 86.96 159.95 87.2C159.77 87.43 159.51 87.61 159.17 87.74C159.55 87.83 159.86 88 160.09 88.26C160.32 88.53 160.44 88.84 160.44 89.2C160.44 89.78 160.22 90.23 159.79 90.54C159.37 90.85 158.77 91 157.98 91L155.12 91ZM156.2 88.22L156.2 90.13L158 90.13C158.45 90.13 158.79 90.04 159.01 89.88C159.24 89.71 159.35 89.47 159.35 89.17C159.35 88.53 158.88 88.22 157.96 88.22L156.2 88.22ZM156.2 87.35L157.6 87.35C158.62 87.35 159.13 87.05 159.13 86.46C159.13 85.87 158.65 85.56 157.69 85.54L156.2 85.54L156.2 87.35ZM163.06 86.85L164.71 86.85C165.42 86.85 165.99 87.04 166.41 87.41C166.83 87.78 167.04 88.27 167.04 88.9C167.04 89.53 166.82 90.04 166.39 90.43C165.96 90.81 165.38 91 164.66 91L161.97 91L161.97 84.66L163.06 84.66L163.06 86.85ZM169.3 91L168.21 91L168.21 84.66L169.3 84.66L169.3 91ZM163.06 87.73L163.06 90.12L164.67 90.12C165.08 90.12 165.39 90.01 165.61 89.81C165.84 89.59 165.95 89.31 165.95 88.94C165.95 88.59 165.84 88.31 165.62 88.08C165.4 87.85 165.1 87.74 164.71 87.73L163.06 87.73ZM175.29 84.66L176.38 84.66L176.38 91L175.29 91L175.29 86.38L172.37 91L171.28 91L171.28 84.66L172.37 84.66L172.37 89.29L175.29 84.66ZM175.59 82.35C175.59 82.82 175.42 83.21 175.1 83.49C174.78 83.78 174.36 83.92 173.83 83.92C173.31 83.92 172.89 83.78 172.56 83.49C172.24 83.2 172.08 82.82 172.08 82.35L172.96 82.35C172.96 82.63 173.03 82.84 173.18 83C173.33 83.15 173.55 83.22 173.83 83.22C174.11 83.22 174.32 83.15 174.47 83C174.63 82.84 174.71 82.63 174.71 82.35L175.59 82.35ZM185.94 84.66L185.94 91L184.85 91L184.85 88.53L183.22 88.53L181.72 91L180.55 91L182.14 88.37C181.74 88.22 181.42 87.99 181.21 87.68C180.99 87.37 180.88 87.01 180.88 86.59C180.88 86.02 181.1 85.55 181.53 85.2C181.97 84.84 182.55 84.66 183.27 84.66L185.94 84.66ZM181.97 86.6C181.97 86.91 182.08 87.16 182.29 87.35C182.5 87.54 182.78 87.64 183.13 87.64L184.85 87.64L184.85 85.54L183.29 85.54C182.89 85.54 182.57 85.64 182.33 85.84C182.09 86.03 181.97 86.29 181.97 86.6ZM188.8 84.66L188.8 90.12L191.12 90.12L191.12 84.66L192.2 84.66L192.2 90.12L194.52 90.12L194.52 84.66L195.61 84.66L195.61 90.12L196.5 90.12L196.39 92.88L195.42 92.88L195.42 91L187.71 91L187.71 84.66L188.8 84.66ZM201.71 84.66L202.79 84.66L202.79 91L201.71 91L201.71 86.38L198.78 91L197.7 91L197.7 84.66L198.78 84.66L198.78 89.29L201.71 84.66ZM206.51 88.3L205.72 88.3L205.72 91L204.63 91L204.63 84.66L205.72 84.66L205.72 87.34L206.42 87.34L208.56 84.66L209.87 84.66L207.36 87.71L210.08 91L208.7 91L206.51 88.3Z" />
	<path id="Layer" fill-rule="evenodd" class="shp0" d="M32.4 -40.6L32.4 -28L29.5 -28L29.5 -38.22L23.81 -38.22L23.81 -28L20.91 -28L20.91 -40.6L32.4 -40.6ZM35.31 -37.68L38.1 -37.68L38.1 -31.92L42.81 -37.68L45.39 -37.68L45.39 -28L42.6 -28L42.6 -33.76L37.9 -28L35.31 -28L35.31 -37.68ZM52.69 -27.86C51.66 -27.86 50.73 -28.07 49.9 -28.49C49.09 -28.92 48.44 -29.51 47.98 -30.27C47.52 -31.02 47.29 -31.88 47.29 -32.84C47.29 -33.8 47.52 -34.66 47.98 -35.42C48.44 -36.17 49.09 -36.76 49.9 -37.18C50.73 -37.61 51.66 -37.83 52.69 -37.83C53.71 -37.83 54.6 -37.61 55.36 -37.18C56.12 -36.76 56.68 -36.15 57.03 -35.36L54.85 -34.19C54.35 -35.08 53.62 -35.52 52.67 -35.52C51.94 -35.52 51.34 -35.28 50.86 -34.8C50.38 -34.32 50.14 -33.67 50.14 -32.84C50.14 -32.01 50.38 -31.36 50.86 -30.88C51.34 -30.4 51.94 -30.16 52.67 -30.16C53.63 -30.16 54.36 -30.6 54.85 -31.49L57.03 -30.3C56.68 -29.54 56.12 -28.94 55.36 -28.5C54.6 -28.07 53.71 -27.86 52.69 -27.86ZM63.97 -34.59C65.23 -34.58 66.2 -34.29 66.87 -33.72C67.54 -33.17 67.88 -32.39 67.88 -31.37C67.88 -30.3 67.5 -29.46 66.75 -28.86C66 -28.28 64.95 -27.98 63.6 -27.98L58.74 -28L58.74 -37.68L61.53 -37.68L61.53 -34.59L63.97 -34.59ZM63.34 -29.98C63.88 -29.97 64.3 -30.08 64.59 -30.32C64.87 -30.56 65.02 -30.92 65.02 -31.4C65.02 -31.87 64.87 -32.21 64.59 -32.43C64.31 -32.64 63.9 -32.76 63.34 -32.77L61.53 -32.79L61.53 -29.98L63.34 -29.98ZM79.09 -28L79.09 -33.8L76.19 -28.94L75 -28.94L72.17 -33.81L72.17 -28L69.64 -28L69.64 -37.68L72.57 -37.68L75.67 -32.09L78.96 -37.68L81.59 -37.68L81.62 -28L79.09 -28ZM88.85 -27.86C87.83 -27.86 86.91 -28.07 86.09 -28.49C85.29 -28.92 84.66 -29.51 84.2 -30.27C83.75 -31.02 83.52 -31.88 83.52 -32.84C83.52 -33.8 83.75 -34.66 84.2 -35.42C84.66 -36.17 85.29 -36.76 86.09 -37.18C86.91 -37.61 87.83 -37.83 88.85 -37.83C89.87 -37.83 90.78 -37.61 91.58 -37.18C92.39 -36.76 93.02 -36.17 93.47 -35.42C93.93 -34.66 94.16 -33.8 94.16 -32.84C94.16 -31.88 93.93 -31.02 93.47 -30.27C93.02 -29.51 92.39 -28.92 91.58 -28.49C90.78 -28.07 89.87 -27.86 88.85 -27.86ZM88.85 -30.16C89.57 -30.16 90.16 -30.4 90.61 -30.88C91.08 -31.37 91.31 -32.03 91.31 -32.84C91.31 -33.66 91.08 -34.31 90.61 -34.79C90.16 -35.28 89.57 -35.52 88.85 -35.52C88.13 -35.52 87.53 -35.28 87.07 -34.79C86.6 -34.31 86.36 -33.66 86.36 -32.84C86.36 -32.03 86.6 -31.37 87.07 -30.88C87.53 -30.4 88.13 -30.16 88.85 -30.16ZM105.72 -27.86C104.7 -27.86 103.79 -28.07 102.97 -28.49C102.17 -28.92 101.54 -29.51 101.08 -30.27C100.62 -31.02 100.4 -31.88 100.4 -32.84C100.4 -33.8 100.62 -34.66 101.08 -35.42C101.54 -36.17 102.17 -36.76 102.97 -37.18C103.79 -37.61 104.7 -37.83 105.72 -37.83C106.74 -37.83 107.66 -37.61 108.46 -37.18C109.26 -36.76 109.89 -36.17 110.35 -35.42C110.81 -34.66 111.03 -33.8 111.03 -32.84C111.03 -31.88 110.81 -31.02 110.35 -30.27C109.89 -29.51 109.26 -28.92 108.46 -28.49C107.66 -28.07 106.74 -27.86 105.72 -27.86ZM105.72 -30.16C106.44 -30.16 107.03 -30.4 107.49 -30.88C107.96 -31.37 108.19 -32.03 108.19 -32.84C108.19 -33.66 107.96 -34.31 107.49 -34.79C107.03 -35.28 106.44 -35.52 105.72 -35.52C105 -35.52 104.41 -35.28 103.94 -34.79C103.47 -34.31 103.24 -33.66 103.24 -32.84C103.24 -32.03 103.47 -31.37 103.94 -30.88C104.41 -30.4 105 -30.16 105.72 -30.16ZM120.75 -35.38L117.47 -35.38L117.47 -28L114.68 -28L114.68 -35.38L111.41 -35.38L111.41 -37.68L120.75 -37.68L120.75 -35.38ZM131.88 -37.68L131.88 -28L129.07 -28L129.07 -35.38L125.04 -35.38L125.04 -28L122.25 -28L122.25 -37.68L131.88 -37.68ZM140.28 -37.83C141.18 -37.83 141.99 -37.62 142.72 -37.2C143.47 -36.79 144.05 -36.21 144.47 -35.45C144.89 -34.71 145.1 -33.84 145.1 -32.84C145.1 -31.85 144.89 -30.97 144.47 -30.21C144.05 -29.47 143.47 -28.89 142.72 -28.47C141.99 -28.06 141.18 -27.86 140.28 -27.86C139.04 -27.86 138.07 -28.25 137.36 -29.03L137.36 -24.51L134.55 -24.51L134.55 -37.68L137.23 -37.68L137.23 -36.57C137.93 -37.41 138.94 -37.83 140.28 -37.83ZM139.79 -30.16C140.51 -30.16 141.1 -30.4 141.55 -30.88C142.02 -31.37 142.25 -32.03 142.25 -32.84C142.25 -33.66 142.02 -34.31 141.55 -34.79C141.1 -35.28 140.51 -35.52 139.79 -35.52C139.07 -35.52 138.47 -35.28 138.01 -34.79C137.55 -34.31 137.32 -33.66 137.32 -32.84C137.32 -32.03 137.55 -31.37 138.01 -30.88C138.47 -30.4 139.07 -30.16 139.79 -30.16ZM150.67 -37.83C152.17 -37.83 153.32 -37.47 154.13 -36.75C154.93 -36.04 155.33 -34.97 155.33 -33.53L155.33 -28L152.71 -28L152.71 -29.21C152.18 -28.31 151.19 -27.86 149.75 -27.86C149.01 -27.86 148.36 -27.98 147.81 -28.23C147.27 -28.49 146.85 -28.83 146.57 -29.28C146.28 -29.72 146.13 -30.23 146.13 -30.79C146.13 -31.69 146.47 -32.4 147.14 -32.91C147.83 -33.43 148.88 -33.69 150.29 -33.69L152.53 -33.69C152.53 -34.3 152.34 -34.77 151.97 -35.09C151.59 -35.43 151.04 -35.6 150.29 -35.6C149.78 -35.6 149.27 -35.51 148.76 -35.34C148.27 -35.19 147.85 -34.97 147.5 -34.7L146.5 -36.66C147.02 -37.03 147.65 -37.32 148.38 -37.52C149.13 -37.73 149.89 -37.83 150.67 -37.83ZM150.46 -29.75C150.94 -29.75 151.36 -29.85 151.73 -30.07C152.1 -30.3 152.37 -30.63 152.53 -31.06L152.53 -32.05L150.6 -32.05C149.45 -32.05 148.87 -31.67 148.87 -30.92C148.87 -30.56 149.01 -30.27 149.28 -30.05C149.57 -29.85 149.96 -29.75 150.46 -29.75ZM165.17 -33.06C166.31 -32.67 166.88 -31.91 166.88 -30.75C166.88 -29.88 166.55 -29.2 165.89 -28.72C165.23 -28.24 164.25 -28 162.94 -28L157.77 -28L157.77 -37.68L162.72 -37.68C163.93 -37.68 164.88 -37.46 165.57 -37.02C166.25 -36.59 166.59 -35.97 166.59 -35.18C166.59 -34.7 166.47 -34.28 166.21 -33.9C165.97 -33.54 165.63 -33.26 165.17 -33.06ZM160.35 -33.71L162.47 -33.71C163.45 -33.71 163.95 -34.05 163.95 -34.75C163.95 -35.43 163.45 -35.78 162.47 -35.78L160.35 -35.78L160.35 -33.71ZM162.7 -29.91C163.74 -29.91 164.25 -30.26 164.25 -30.97C164.25 -31.34 164.13 -31.61 163.89 -31.78C163.65 -31.96 163.27 -32.05 162.76 -32.05L160.35 -32.05L160.35 -29.91L162.7 -29.91ZM178.26 -37.68L178.26 -28L175.45 -28L175.45 -35.38L172.39 -35.38L172.3 -33.67C172.25 -32.4 172.13 -31.34 171.94 -30.5C171.75 -29.66 171.44 -29 171 -28.52C170.57 -28.04 169.97 -27.8 169.2 -27.8C168.79 -27.8 168.31 -27.87 167.75 -28.02L167.89 -30.32C168.08 -30.3 168.22 -30.29 168.3 -30.29C168.72 -30.29 169.03 -30.44 169.24 -30.74C169.46 -31.05 169.6 -31.44 169.67 -31.91C169.74 -32.39 169.8 -33.02 169.83 -33.8L169.98 -37.68L178.26 -37.68ZM190.37 -32.81C190.37 -32.77 190.35 -32.52 190.32 -32.05L182.99 -32.05C183.12 -31.45 183.44 -30.98 183.93 -30.63C184.42 -30.28 185.03 -30.11 185.76 -30.11C186.27 -30.11 186.71 -30.18 187.09 -30.32C187.49 -30.48 187.86 -30.72 188.19 -31.04L189.69 -29.42C188.78 -28.38 187.44 -27.86 185.69 -27.86C184.6 -27.86 183.63 -28.07 182.79 -28.49C181.95 -28.92 181.31 -29.51 180.85 -30.27C180.39 -31.02 180.16 -31.88 180.16 -32.84C180.16 -33.79 180.39 -34.64 180.83 -35.4C181.29 -36.17 181.91 -36.76 182.69 -37.18C183.48 -37.61 184.36 -37.83 185.33 -37.83C186.28 -37.83 187.14 -37.62 187.91 -37.22C188.67 -36.81 189.27 -36.22 189.71 -35.45C190.15 -34.7 190.37 -33.81 190.37 -32.81ZM185.35 -35.7C184.71 -35.7 184.18 -35.52 183.75 -35.16C183.31 -34.8 183.05 -34.31 182.96 -33.69L187.72 -33.69C187.63 -34.3 187.37 -34.79 186.93 -35.15C186.5 -35.52 185.97 -35.7 185.35 -35.7ZM192.52 -37.68L195.31 -37.68L195.31 -33.9L199.53 -33.9L199.53 -37.68L202.33 -37.68L202.33 -28L199.53 -28L199.53 -31.62L195.31 -31.62L195.31 -28L192.52 -28L192.52 -37.68ZM209.56 -27.86C208.54 -27.86 207.62 -28.07 206.8 -28.49C206 -28.92 205.37 -29.51 204.91 -30.27C204.46 -31.02 204.23 -31.88 204.23 -32.84C204.23 -33.8 204.46 -34.66 204.91 -35.42C205.37 -36.17 206 -36.76 206.8 -37.18C207.62 -37.61 208.54 -37.83 209.56 -37.83C210.58 -37.83 211.49 -37.61 212.29 -37.18C213.1 -36.76 213.73 -36.17 214.18 -35.42C214.64 -34.66 214.87 -33.8 214.87 -32.84C214.87 -31.88 214.64 -31.02 214.18 -30.27C213.73 -29.51 213.1 -28.92 212.29 -28.49C211.49 -28.07 210.58 -27.86 209.56 -27.86ZM209.56 -30.16C210.28 -30.16 210.87 -30.4 211.32 -30.88C211.79 -31.37 212.02 -32.03 212.02 -32.84C212.02 -33.66 211.79 -34.31 211.32 -34.79C210.87 -35.28 210.28 -35.52 209.56 -35.52C208.84 -35.52 208.24 -35.28 207.78 -34.79C207.31 -34.31 207.07 -33.66 207.07 -32.84C207.07 -32.03 207.31 -31.37 207.78 -30.88C208.24 -30.4 208.84 -30.16 209.56 -30.16ZM216.38 -40.6L219.73 -40.6L219.18 -32.37L216.94 -32.37L216.38 -40.6ZM218.06 -27.86C217.57 -27.86 217.15 -28.01 216.82 -28.32C216.49 -28.65 216.33 -29.04 216.33 -29.49C216.33 -29.95 216.49 -30.33 216.82 -30.63C217.14 -30.94 217.56 -31.1 218.06 -31.1C218.56 -31.1 218.98 -30.94 219.3 -30.63C219.63 -30.33 219.79 -29.95 219.79 -29.49C219.79 -29.04 219.62 -28.65 219.28 -28.32C218.96 -28.01 218.55 -27.86 218.06 -27.86Z" />
	<g id="Layer">
		<path id="Layer" fill-rule="evenodd" class="shp1" d="M117.07 33.38L117.07 33.38L110.71 27.02C110.32 26.63 110.32 26 110.71 25.61C111.1 25.22 111.73 25.22 112.12 25.61L118.28 31.76L127.47 22.57C127.86 22.18 128.49 22.18 128.88 22.57C129.28 22.96 129.28 23.59 128.88 23.98L118.28 34.59L117.07 33.38Z" />
		<path id="Layer" fill-rule="evenodd" class="shp1" d="M98 28C98 15.85 107.85 6 120 6C132.15 6 142 15.85 142 28C142 40.15 132.15 50 120 50C107.85 50 98 40.15 98 28ZM120 48C131.05 48 140 39.05 140 28C140 16.95 131.05 8 120 8C108.95 8 100 16.95 100 28C100 39.05 108.95 48 120 48Z" />
	</g>
	<path id="Layer" class="shp0" d="M1 27L88 27C88.55 27 89 27.45 89 28L89 28C89 28.55 88.55 29 88 29L1 29C0.45 29 0 28.55 0 28L0 28C0 27.45 0.45 27 1 27Z" />
	<path id="Layer" class="shp0" d="M152 27L239 27C239.55 27 240 27.45 240 28L240 28C240 28.55 239.55 29 239 29L152 29C151.45 29 151 28.55 151 28L151 28C151 27.45 151.45 27 152 27Z" />
</svg>