<svg width="32" height="32" viewBox="0 0 32 32" fill="none" xmlns="http://www.w3.org/2000/svg">
<path d="M14.3867 21.72C14.9067 22.24 15.7467 22.24 16.2667 21.72L21.0533 16.9333C21.1769 16.81 21.275 16.6635 21.3419 16.5022C21.4088 16.3409 21.4433 16.168 21.4433 15.9933C21.4433 15.8187 21.4088 15.6458 21.3419 15.4845C21.275 15.3232 21.1769 15.1767 21.0533 15.0533L16.2667 10.2667C16.0174 10.0174 15.6792 9.87731 15.3267 9.87731C14.9741 9.87731 14.636 10.0174 14.3867 10.2667C14.1374 10.516 13.9973 10.8541 13.9973 11.2067C13.9973 11.5592 14.1374 11.8974 14.3867 12.1467L16.8933 14.6667H5.33333C4.6 14.6667 4 15.2667 4 16C4 16.7333 4.6 17.3333 5.33333 17.3333H16.8933L14.3867 19.84C13.8667 20.36 13.88 21.2133 14.3867 21.72ZM25.3333 4H6.66667C5.95942 4 5.28115 4.28095 4.78105 4.78105C4.28095 5.28115 4 5.95942 4 6.66667V10.6667C4 11.4 4.6 12 5.33333 12C6.06667 12 6.66667 11.4 6.66667 10.6667V8C6.66667 7.26667 7.26667 6.66667 8 6.66667H24C24.7333 6.66667 25.3333 7.26667 25.3333 8V24C25.3333 24.7333 24.7333 25.3333 24 25.3333H8C7.26667 25.3333 6.66667 24.7333 6.66667 24V21.3333C6.66667 20.6 6.06667 20 5.33333 20C4.6 20 4 20.6 4 21.3333V25.3333C4 26.8 5.2 28 6.66667 28H25.3333C26.8 28 28 26.8 28 25.3333V6.66667C28 5.2 26.8 4 25.3333 4Z" fill="#6D829B"/>
</svg>
