<svg width="14" height="14" viewBox="0 0 14 14" fill="none" xmlns="http://www.w3.org/2000/svg">
<g clip-path="url(#clip0)">
<path d="M14 4.81253C14 7.47039 11.8454 9.625 9.1875 9.625C8.8807 9.625 8.58074 9.59596 8.28989 9.54108L7.63331 10.2797C7.57174 10.349 7.4962 10.4045 7.41166 10.4424C7.32711 10.4804 7.23549 10.5 7.14282 10.5H6.125V11.5938C6.125 11.9562 5.83119 12.25 5.46875 12.25H4.375V13.3438C4.375 13.7062 4.08119 14 3.71875 14H0.65625C0.293809 14 0 13.7062 0 13.3438V11.2093C0 11.0353 0.0691523 10.8683 0.192199 10.7453L4.61647 6.321C4.45998 5.84648 4.375 5.33944 4.375 4.8125C4.375 2.15463 6.52961 2.7344e-05 9.18747 2.61203e-10C11.8532 -2.73435e-05 14 2.14679 14 4.81253ZM9.1875 3.5C9.1875 4.22488 9.77512 4.8125 10.5 4.8125C11.2249 4.8125 11.8125 4.22488 11.8125 3.5C11.8125 2.77512 11.2249 2.1875 10.5 2.1875C9.77512 2.1875 9.1875 2.77512 9.1875 3.5Z" fill="#6D829B"/>
</g>
<defs>
<clipPath id="clip0">
<rect width="14" height="14" fill="white"/>
</clipPath>
</defs>
</svg>
