<svg width="17" height="16" viewBox="0 0 17 16" fill="none" xmlns="http://www.w3.org/2000/svg">
<g clip-path="url(#clip0)">
<path d="M13.473 7.45503C15.3911 7.45503 16.946 6.57169 16.946 5.48203C16.946 4.39238 15.3911 3.50903 13.473 3.50903C11.5549 3.50903 10 4.39238 10 5.48203C10 6.57169 11.5549 7.45503 13.473 7.45503Z" fill="#6D829B"/>
<path fill-rule="evenodd" clip-rule="evenodd" d="M13.525 8.1451C11.041 8.1451 10.052 7.1041 10.052 6.5011V9.0841C10.052 10.1741 11.607 11.0561 13.525 11.0561C15.445 11.0561 17 10.1741 17 9.0841V6.5631C17 7.1671 16.01 8.1451 13.525 8.1451Z" fill="#6D829B"/>
<path fill-rule="evenodd" clip-rule="evenodd" d="M13.525 11.6991C11.303 11.6991 10.052 10.6981 10.052 10.0951V12.6541C10.052 13.7441 11.607 14.6271 13.525 14.6271C15.445 14.6271 17 13.7441 17 12.6541V10.0641C17 10.6671 15.748 11.6991 13.525 11.6991Z" fill="#6D829B"/>
<path d="M4.937 3.946C7.11135 3.946 8.874 3.06266 8.874 1.973C8.874 0.883342 7.11135 0 4.937 0C2.76266 0 1 0.883342 1 1.973C1 3.06266 2.76266 3.946 4.937 3.946Z" fill="#6D829B"/>
<path fill-rule="evenodd" clip-rule="evenodd" d="M5.062 4.59004C2.247 4.59004 1.125 3.54904 1.125 2.94604V5.52904C1.125 6.61904 2.888 7.50105 5.062 7.50105C7.238 7.50105 9 6.61904 9 5.52904V3.00804C9 3.61204 7.877 4.59004 5.062 4.59004Z" fill="#6D829B"/>
<path fill-rule="evenodd" clip-rule="evenodd" d="M5.062 8.1361C2.543 8.1361 1.125 7.1351 1.125 6.5321V9.0911C1.125 10.1811 2.888 11.0641 5.062 11.0641C7.238 11.0641 9 10.1811 9 9.0911V6.5011C9 7.1041 7.58 8.1361 5.062 8.1361Z" fill="#6D829B"/>
<path fill-rule="evenodd" clip-rule="evenodd" d="M5.062 11.6991C2.543 11.6991 1.125 10.6981 1.125 10.0951V12.6541C1.125 13.7441 2.888 14.6271 5.062 14.6271C7.238 14.6271 9 13.7441 9 12.6541V10.0641C9 10.6671 7.58 11.6991 5.062 11.6991Z" fill="#6D829B"/>
</g>
<defs>
<clipPath id="clip0">
<rect width="17" height="16" fill="white"/>
</clipPath>
</defs>
</svg>
