<svg width="16" height="16" viewBox="0 0 16 16" fill="none" xmlns="http://www.w3.org/2000/svg">
<path d="M13.25 2.5H2.75C2.28602 2.5005 1.84119 2.68503 1.51311 3.01311C1.18503 3.34119 1.0005 3.78602 1 4.25V11.75C1.0005 12.214 1.18503 12.6588 1.51311 12.9869C1.84119 13.315 2.28602 13.4995 2.75 13.5H13.25C13.714 13.4995 14.1588 13.315 14.4869 12.9869C14.815 12.6588 14.9995 12.214 15 11.75V4.25C14.9995 3.78602 14.815 3.34119 14.4869 3.01311C14.1588 2.68503 13.714 2.5005 13.25 2.5ZM12.8069 5.39469L8.30688 8.89469C8.21912 8.9629 8.11115 8.99994 8 8.99994C7.88885 8.99994 7.78088 8.9629 7.69312 8.89469L3.19313 5.39469C3.14025 5.35476 3.09585 5.30472 3.06248 5.24749C3.02911 5.19025 3.00746 5.12695 2.99877 5.06127C2.99007 4.99559 2.99452 4.92884 3.01185 4.86489C3.02919 4.80094 3.05905 4.74108 3.09972 4.68878C3.14039 4.63647 3.19104 4.59277 3.24874 4.56021C3.30645 4.52766 3.37004 4.50689 3.43584 4.49913C3.50164 4.49136 3.56832 4.49675 3.63201 4.51498C3.69571 4.53321 3.75515 4.56391 3.80687 4.60531L8 7.86656L12.1931 4.60531C12.298 4.52613 12.4298 4.4914 12.56 4.50864C12.6903 4.52587 12.8085 4.59369 12.8892 4.69741C12.9698 4.80114 13.0064 4.93244 12.991 5.06293C12.9756 5.19341 12.9095 5.31259 12.8069 5.39469Z" fill="#6D829B"/>
</svg>
