<svg width="16" height="16" viewBox="0 0 16 16" fill="none" xmlns="http://www.w3.org/2000/svg">
<path d="M16 14.8571V1.14286C16 0.514286 15.52 0 14.9333 0H1.06667C0.48 0 0 0.514286 0 1.14286V14.8571C0 15.4857 0.48 16 1.06667 16H14.9333C15.52 16 16 15.4857 16 14.8571ZM5.33333 9.14286H6.4C6.98667 9.14286 7.46667 9.65714 7.46667 10.2857C7.46667 10.9143 6.98667 11.4286 6.4 11.4286H5.33333V13.1429C5.33333 13.4629 5.09867 13.7143 4.8 13.7143C4.50133 13.7143 4.26667 13.4629 4.26667 13.1429V11.4286H3.2C2.61333 11.4286 2.13333 10.9143 2.13333 10.2857C2.13333 9.65714 2.61333 9.14286 3.2 9.14286H4.26667V2.85714C4.26667 2.53714 4.50133 2.28571 4.8 2.28571C5.09867 2.28571 5.33333 2.53714 5.33333 2.85714V9.14286ZM10.6667 6.85714H9.6C9.01333 6.85714 8.53333 6.34286 8.53333 5.71429C8.53333 5.08571 9.01333 4.57143 9.6 4.57143H10.6667V2.85714C10.6667 2.53714 10.9013 2.28571 11.2 2.28571C11.4987 2.28571 11.7333 2.53714 11.7333 2.85714V4.57143H12.8C13.3867 4.57143 13.8667 5.08571 13.8667 5.71429C13.8667 6.34286 13.3867 6.85714 12.8 6.85714H11.7333V13.1429C11.7333 13.4629 11.4987 13.7143 11.2 13.7143C10.9013 13.7143 10.6667 13.4629 10.6667 13.1429V6.85714Z" fill="white"/>
</svg>
