<svg width="36" height="42" viewBox="0 0 36 42" fill="none" xmlns="http://www.w3.org/2000/svg">
<path d="M4.83782 36.7505H29.1429L27.6099 33.2346L35.9656 41.9996V4.33699C35.8497 1.99549 33.886 0.00573828 31.452 0.00573828L4.47412 0.00561523C2.04173 0.00561523 0.0678711 1.99887 0.0678711 4.34037V32.7604C0.0678711 35.2296 2.41055 36.7505 4.83782 36.7505ZM22.4451 9.94561L22.3889 9.96662L22.4093 9.94561H22.4451ZM9.43775 12.1664C12.5622 9.83187 15.4582 9.94387 15.4582 9.94387L15.6917 10.1801C11.8684 11.1164 10.1349 12.8699 10.1349 12.8699C10.1349 12.8699 10.5985 12.6371 11.4082 12.2819C16.5576 10.2029 22.1809 10.3534 27.3866 12.9854C27.3866 12.9854 25.6497 11.3456 22.0616 10.2956L22.3787 9.97536C22.8747 9.97711 25.4997 10.0716 28.3088 12.1804C28.3088 12.1804 31.452 17.6929 31.452 24.4654C31.348 24.3359 29.502 27.3809 24.7514 27.4859C24.7514 27.4859 23.9468 26.5514 23.3741 25.7359C26.1525 24.9169 27.1923 23.2789 27.1923 23.2789C26.2804 23.8686 25.4485 24.2186 24.7735 24.5686C23.7355 25.0376 22.6957 25.2686 21.6576 25.5049C16.7417 26.3239 13.9821 24.9536 11.3741 23.8669L10.4826 23.4014C10.4826 23.4014 11.5207 25.0394 14.1883 25.8584C13.4878 26.6791 12.794 27.6119 12.794 27.6119C8.04514 27.4964 6.31332 24.4514 6.31332 24.4514C6.31332 17.6684 9.43775 12.1664 9.43775 12.1664Z" fill="#9671FF"/>
<path d="M22.7524 22.3497C23.9643 22.3497 24.9513 21.2997 24.9513 20.0047C24.9513 18.7185 23.9694 17.6685 22.7524 17.6685V17.6737C21.5456 17.6737 20.5569 18.7202 20.5535 20.0152C20.5535 21.2997 21.5405 22.3497 22.7524 22.3497Z" fill="#9671FF"/>
<path d="M14.8807 22.3497C16.0926 22.3497 17.0795 21.2997 17.0795 20.0047C17.0795 18.7185 16.0994 17.6685 14.8875 17.6685L14.8807 17.6737C13.6688 17.6737 12.6818 18.7202 12.6818 20.0152C12.6818 21.2997 13.6688 22.3497 14.8807 22.3497Z" fill="#9671FF"/>
</svg>
