<svg width="36" height="36" viewBox="0 0 36 36" fill="none" xmlns="http://www.w3.org/2000/svg">
<path fill-rule="evenodd" clip-rule="evenodd" d="M2 0C0.895432 0 0 0.895431 0 2V34C0 35.1046 0.895431 36 2 36H34C35.1046 36 36 35.1046 36 34V2C36 0.895432 35.1046 0 34 0H2ZM26.988 19.9169C27.8144 20.7231 28.6883 21.4822 29.43 22.3735C29.7578 22.7673 30.0678 23.1736 30.304 23.63C30.6394 24.2839 30.3354 25.0002 29.7514 25.0397L26.1217 25.0381C25.1848 25.1151 24.4382 24.7374 23.8086 24.0964C23.3079 23.5861 22.8399 23.0398 22.3566 22.5122C22.1599 22.2949 21.9519 22.0917 21.7047 21.9297C21.2088 21.6084 20.7787 21.7059 20.4953 22.2224C20.2071 22.7484 20.1394 23.3325 20.1128 23.9183C20.0733 24.7734 19.8153 24.9971 18.957 25.0382C17.1208 25.1233 15.3794 24.8443 13.762 23.9199C12.3338 23.1044 11.2284 21.9515 10.2662 20.6478C8.39085 18.1061 6.95457 15.3157 5.66498 12.4451C5.37349 11.7981 5.58641 11.4514 6.29786 11.4389C7.48389 11.4155 8.66943 11.4183 9.85379 11.4373C10.3356 11.4454 10.6552 11.7207 10.8395 12.1758C11.4804 13.7508 12.2644 15.2497 13.2486 16.6404C13.5118 17.0104 13.7795 17.3789 14.1588 17.6402C14.5792 17.93 14.9005 17.8353 15.0988 17.3644C15.225 17.0653 15.2802 16.7473 15.3068 16.4276C15.4011 15.3331 15.4124 14.2374 15.25 13.1462C15.1492 12.4641 14.7635 12.0231 14.0834 11.8941C13.7367 11.8279 13.7886 11.7006 13.9556 11.5018C14.2486 11.1604 14.5244 10.9475 15.0706 10.9475H19.1728C19.8198 11.0737 19.9649 11.3651 20.0528 12.0154L20.056 16.5742C20.0484 16.8262 20.1822 17.5724 20.6341 17.7376C20.9961 17.8573 21.2372 17.5659 21.4544 17.3361C22.4369 16.2936 23.1379 15.0609 23.7643 13.7854C24.0416 13.2247 24.2811 12.6422 24.5141 12.0592C24.6858 11.6278 24.9535 11.4154 25.4401 11.4231L29.3895 11.4279C29.5059 11.4279 29.6257 11.4279 29.7406 11.4468C30.4049 11.5617 30.5876 11.8484 30.3812 12.4986C30.0587 13.5172 29.427 14.3678 28.8114 15.2196C28.1514 16.1315 27.4492 17.0115 26.7942 17.9282C26.1959 18.7676 26.2431 19.1896 26.988 19.9169Z" fill="#30B4FF"/>
</svg>
