<svg width="36" height="36" viewBox="0 0 36 36" fill="none" xmlns="http://www.w3.org/2000/svg">
<g clip-path="url(#clip0)">
<rect width="36" height="36" rx="3" fill="#3053FF"/>
<g filter="url(#filter0_d)">
<path fill-rule="evenodd" clip-rule="evenodd" d="M18.6188 28.6172C18.5453 28.6593 18.4549 28.6593 18.3814 28.6172L9.12053 23.3236C9.04599 23.281 9 23.2018 9 23.1159V12.5329C9 12.447 9.04599 12.3678 9.12053 12.3252L18.3814 7.03155C18.4549 6.98948 18.5453 6.98948 18.6188 7.03155L27.8796 12.3252C27.9541 12.3678 28 12.447 28 12.5329V23.1159C28 23.2018 27.9541 23.281 27.8796 23.3236L18.6188 28.6172ZM24.5937 20.2374C24.5937 20.3233 24.6396 20.4028 24.7143 20.4454L26.0129 21.1876C26.1723 21.2788 26.3709 21.1635 26.3709 20.9799V14.6688C26.3709 14.4853 26.1723 14.37 26.0129 14.4611L24.7143 15.2034C24.6396 15.246 24.5937 15.3255 24.5937 15.4114V20.2374ZM23.6604 21.8412C23.7339 21.799 23.8243 21.799 23.8978 21.8412L25.1929 22.5813C25.3537 22.6732 25.3537 22.905 25.1929 22.9969L19.6726 26.1522C19.5132 26.2434 19.3146 26.1283 19.3146 25.9445V24.464C19.3146 24.3781 19.3606 24.2989 19.4352 24.2563L23.6604 21.8412ZM25.1929 13.0675C25.3537 12.9756 25.3537 12.7437 25.1929 12.6518L19.6726 9.49648C19.5132 9.40531 19.3146 9.52048 19.3146 9.70423V11.1848C19.3146 11.2706 19.3606 11.3499 19.4352 11.3925L23.6604 13.8076C23.7339 13.8497 23.8243 13.8497 23.8978 13.8076L25.1929 13.0675ZM17.6855 9.70419C17.6855 9.52046 17.4869 9.40526 17.3275 9.49646L11.8072 12.6518C11.6465 12.7437 11.6465 12.9756 11.8072 13.0675L13.1023 13.8076C13.1758 13.8497 13.2662 13.8497 13.3398 13.8076L17.5649 11.3925C17.6396 11.3499 17.6855 11.2706 17.6855 11.1848V9.70419ZM10.9872 21.1876C10.8277 21.2788 10.6292 21.1637 10.6292 20.9799V14.6688C10.6292 14.4851 10.8277 14.37 10.9872 14.4611L12.2859 15.2034C12.3604 15.246 12.4064 15.3255 12.4064 15.4114V20.2377C12.4064 20.3233 12.3604 20.4028 12.2859 20.4454L10.9872 21.1876ZM11.8072 22.5813C11.6465 22.6732 11.6465 22.905 11.8072 22.9969L17.3273 26.1522C17.4869 26.2434 17.6855 26.1283 17.6855 25.9445V24.464C17.6855 24.3781 17.6393 24.2989 17.5649 24.2563L13.3397 21.8412C13.2662 21.799 13.1758 21.799 13.1022 21.8412L11.8072 22.5813ZM22.9646 20.2377C22.9646 20.3233 22.9186 20.4028 22.844 20.4454L18.6188 22.8605C18.5453 22.9024 18.4549 22.9024 18.3814 22.8605L14.1562 20.4454C14.0815 20.4028 14.0356 20.3233 14.0356 20.2377V15.4114C14.0356 15.3255 14.0815 15.2463 14.1562 15.2037L18.3814 12.7885C18.4549 12.7464 18.5453 12.7464 18.6188 12.7885L22.844 15.2037C22.9186 15.2463 22.9646 15.3255 22.9646 15.4114V20.2377Z" fill="white"/>
</g>
</g>
<defs>
<filter id="filter0_d" x="-66" y="-68" width="169" height="171.649" filterUnits="userSpaceOnUse" color-interpolation-filters="sRGB">
<feFlood flood-opacity="0" result="BackgroundImageFix"/>
<feColorMatrix in="SourceAlpha" type="matrix" values="0 0 0 0 0 0 0 0 0 0 0 0 0 0 0 0 0 0 127 0"/>
<feOffset/>
<feGaussianBlur stdDeviation="37.5"/>
<feColorMatrix type="matrix" values="0 0 0 0 0.188235 0 0 0 0 0.705882 0 0 0 0 1 0 0 0 1 0"/>
<feBlend mode="normal" in2="BackgroundImageFix" result="effect1_dropShadow"/>
<feBlend mode="normal" in="SourceGraphic" in2="effect1_dropShadow" result="shape"/>
</filter>
<clipPath id="clip0">
<rect width="36" height="36" rx="3" fill="white"/>
</clipPath>
</defs>
</svg>
