<svg width="16" height="16" viewBox="0 0 16 16" fill="none" xmlns="http://www.w3.org/2000/svg">
<path d="M14 16H2C1.44792 16 0.976562 15.8047 0.585938 15.4141C0.195312 15.0234 0 14.5521 0 14V2C0 1.44792 0.195312 0.976562 0.585938 0.585938C0.976562 0.195312 1.44792 0 2 0H14C14.5521 0 15.0234 0.195312 15.4141 0.585938C15.8047 0.976562 16 1.44792 16 2V14C16 14.5521 15.8047 15.0234 15.4141 15.4141C15.0234 15.8047 14.5521 16 14 16ZM5 11.5C5 11.3646 4.95052 11.2474 4.85156 11.1484C4.7526 11.0495 4.63542 11 4.5 11H3.5C3.36458 11 3.2474 11.0495 3.14844 11.1484C3.04948 11.2474 3 11.3646 3 11.5V13.5C3 13.6354 3.04948 13.7526 3.14844 13.8516C3.2474 13.9505 3.36458 14 3.5 14H4.5C4.63542 14 4.7526 13.9505 4.85156 13.8516C4.95052 13.7526 5 13.6354 5 13.5V11.5ZM9 7.5C9 7.36458 8.95052 7.2474 8.85156 7.14844C8.7526 7.04948 8.63542 7 8.5 7H7.5C7.36458 7 7.2474 7.04948 7.14844 7.14844C7.04948 7.2474 7 7.36458 7 7.5V13.5C7 13.6354 7.04948 13.7526 7.14844 13.8516C7.2474 13.9505 7.36458 14 7.5 14H8.5C8.63542 14 8.7526 13.9505 8.85156 13.8516C8.95052 13.7526 9 13.6354 9 13.5V7.5ZM13 2.5C13 2.36458 12.9505 2.2474 12.8516 2.14844C12.7526 2.04948 12.6354 2 12.5 2H11.5C11.3646 2 11.2474 2.04948 11.1484 2.14844C11.0495 2.2474 11 2.36458 11 2.5V13.5C11 13.6354 11.0495 13.7526 11.1484 13.8516C11.2474 13.9505 11.3646 14 11.5 14H12.5C12.6354 14 12.7526 13.9505 12.8516 13.8516C12.9505 13.7526 13 13.6354 13 13.5V2.5Z" fill="#0C1F41"/>
</svg>
